<?xml version="1.0" encoding="UTF-8" standalone="no"?>
<!-- Created with Vectornator for iOS (http://vectornator.io/) -->

<svg
   xmlns:vectornator="http://vectornator.io"
   xmlns:dc="http://purl.org/dc/elements/1.1/"
   xmlns:cc="http://creativecommons.org/ns#"
   xmlns:rdf="http://www.w3.org/1999/02/22-rdf-syntax-ns#"
   xmlns:svg="http://www.w3.org/2000/svg"
   xmlns="http://www.w3.org/2000/svg"
   xmlns:sodipodi="http://sodipodi.sourceforge.net/DTD/sodipodi-0.dtd"
   xmlns:inkscape="http://www.inkscape.org/namespaces/inkscape"
   style="fill-rule:evenodd;clip-rule:evenodd;stroke-linecap:round;stroke-linejoin:round;"
   xml:space="preserve"
   version="1.1"
   viewBox="0 0 1024 1024"
   id="svg4259"
   sodipodi:docname="MethaneLogoWatermark.svg"
   inkscape:version="0.92.4 (5da689c313, 2019-01-14)"><sodipodi:namedview
   pagecolor="#000000"
   bordercolor="#666666"
   borderopacity="1"
   objecttolerance="10"
   gridtolerance="10"
   guidetolerance="10"
   inkscape:pageopacity="0"
   inkscape:pageshadow="2"
   inkscape:window-width="2560"
   inkscape:window-height="1361"
   id="namedview4261"
   showgrid="false"
   inkscape:zoom="0.23046875"
   inkscape:cx="512"
   inkscape:cy="512"
   inkscape:window-x="-9"
   inkscape:window-y="-9"
   inkscape:window-maximized="1"
   inkscape:current-layer="svg4259" />
<metadata
   id="metadata4252">
<vectornator:setting
   key="DisplayWhiteBackground"
   value="0" />
<vectornator:setting
   key="RulersVisible"
   value="1" />
<vectornator:setting
   key="SnapToEdges"
   value="0" />
<vectornator:setting
   key="Units"
   value="Pixels" />
<vectornator:setting
   key="DynamicGuides"
   value="0" />
<vectornator:setting
   key="SnapToPoints"
   value="0" />
<vectornator:setting
   key="SnapToGrid"
   value="0" />
<vectornator:setting
   key="SnapToGuides"
   value="1" />
<vectornator:setting
   key="ShowGrid"
   value="1" />
<vectornator:setting
   key="GridSpacing"
   value="36" />
<rdf:RDF><cc:Work
     rdf:about=""><dc:format>image/svg+xml</dc:format><dc:type
       rdf:resource="http://purl.org/dc/dcmitype/StillImage" /><dc:title></dc:title></cc:Work></rdf:RDF></metadata>
<defs
   id="defs4254" />
<g
   id="Layer 1"
   vectornator:layerName="Layer 1">
<path
   d="M445.333+38.2065C345.791+43.2479+259.013+122.154+261.684+222.832C261.882+230.319+263.068+237.449+264.826+244.36C113.37+331.709+41.5433+506.948+79.3937+671.105C77.1716+674.605+75.014+678.148+73.0244+681.763C46.7109+729.581+41.9687+789.373+65.2962+843.459C69.3804+852.929+74.2056+861.893+79.6485+870.338C125.121+940.888+214.421+973.519+288.265+934.541C396.666+987.522+527.934+989.587+642.527+928.426C649.637+924.631+656.556+920.616+663.334+916.452C671.23+927.404+681.059+936.205+692.972+941.972C731.402+960.573+773.787+962.472+812.673+954.031C871.631+941.232+923.979+901.41+950.42+842.1C994.302+743.673+953.037+621.628+851.866+585.502C851.004+585.194+850.139+585.062+849.275+584.78C849.577+522.187+834.917+458.606+803.544+399.475C767.35+331.259+713.813+278.345+651.359+242.959C651.38+242.731+651.425+242.509+651.444+242.28C654.912+199.726+641.385+159.486+619.47+126.273C586.243+75.9159+530.231+41.4444+465.375+38.2065C458.648+37.8707+451.969+37.8704+445.333+38.2065ZM451.575+86.1039C456.462+85.8677+461.397+85.8677+466.352+86.1039C514.114+88.3806+555.383+112.604+579.853+148.014C595.992+171.368+605.973+199.661+603.419+229.584C600.85+259.692+571.801+283.822+529.748+295.782C507.72+302.047+482.134+304.979+454.887+303.68C375.623+299.902+317.802+267.265+316.375+215.911C314.408+145.117+378.27+89.6459+451.575+86.1039ZM473.825+121.984C465.421+122.607+461.266+129.24+465.672+137.058C485.352+171.983+515.681+207.162+544.737+233.533C557.66+245.262+564.238+234.249+563.335+222.917C560.01+181.192+528.714+140.099+483.464+123.556C479.868+122.241+476.626+121.777+473.825+121.984ZM638.111+326.482C639.905+326.327+641.811+326.375+643.801+326.61C649.107+327.236+655.053+329.315+661.253+333.106C739.28+380.815+781.782+469.789+771.867+549.833C769.174+571.573+752.592+590.068+733.014+563.209C688.994+502.821+646.049+425.313+622.825+352.172C618.275+337.844+625.554+327.566+638.111+326.482ZM332.596+477.817C380.704+479.19+430.848+500.287+467.286+541.468C532.063+614.68+522.777+724.811+466.097+775.35C392.988+840.537+280.093+832.808+215.315+759.596C176.282+715.481+163.436+657.407+175.486+604.1C183.433+568.942+201.431+534.954+231.493+510.216C258.992+487.587+295.178+476.75+332.596+477.817ZM360.069+529.112C347.887+528.2+340.34+536.402+344.74+548.007C364.394+599.846+399.175+654.252+434.335+696.37C449.973+715.104+462.121+701.425+463.591+685.755C469.007+628.055+434.266+565.362+373.529+533.273C368.702+530.723+364.129+529.415+360.069+529.112ZM809.106+626.223C816.381+626.486+823.687+627.835+830.932+630.384C906.688+657.038+937.588+747.102+904.731+819.723C884.932+863.482+845.738+892.826+801.59+902.269C772.473+908.498+740.686+907.119+711.91+893.395C667.789+872.351+660.029+799.182+692.887+726.561C719.584+667.556+759.994+628.971+801.845+626.308C804.26+626.154+806.681+626.135+809.106+626.223ZM806.431+664.396C797.541+663.756+792.208+669.356+795.646+677.262C810.998+712.575+837.43+749.641+863.882+778.365C875.647+791.14+884.229+781.852+884.986+771.189C887.775+731.928+861.204+689.181+816.325+667.241C812.758+665.498+809.395+664.61+806.431+664.396ZM111.028+728.09C114.078+729.982+126.864+777.518+162.959+823.927C202.719+875.047+244.591+895.865+236.928+896.834C199.143+901.612+161.397+894.822+127.036+851.23C97.9372+814.313+96.5502+762.424+110.561+728.344C110.682+728.051+110.825+727.963+111.028+728.09Z"
   opacity="1"
   fill="#ffffff"
   id="path4256" />
</g>
</svg>