<?xml version="1.0" encoding="UTF-8" standalone="no"?>
<!-- Created with Vectornator for iOS (http://vectornator.io/) -->

<svg
   xmlns:vectornator="http://vectornator.io"
   xmlns:dc="http://purl.org/dc/elements/1.1/"
   xmlns:cc="http://creativecommons.org/ns#"
   xmlns:rdf="http://www.w3.org/1999/02/22-rdf-syntax-ns#"
   xmlns:svg="http://www.w3.org/2000/svg"
   xmlns="http://www.w3.org/2000/svg"
   xmlns:sodipodi="http://sodipodi.sourceforge.net/DTD/sodipodi-0.dtd"
   xmlns:inkscape="http://www.inkscape.org/namespaces/inkscape"
   style="clip-rule:evenodd;fill-rule:evenodd;stroke-linecap:round;stroke-linejoin:round"
   xml:space="preserve"
   version="1.1"
   viewBox="0 0 768 1024"
   id="svg4237"
   sodipodi:docname="MethaneLogoNameWatermark.svg"
   inkscape:version="0.92.4 (5da689c313, 2019-01-14)"
   width="768"
   height="1024"><sodipodi:namedview
   pagecolor="#000000"
   bordercolor="#666666"
   borderopacity="1"
   objecttolerance="10"
   gridtolerance="10"
   guidetolerance="10"
   inkscape:pageopacity="0"
   inkscape:pageshadow="2"
   inkscape:window-width="2560"
   inkscape:window-height="1361"
   id="namedview4239"
   showgrid="false"
   inkscape:zoom="0.65186406"
   inkscape:cx="1141.3353"
   inkscape:cy="723.73572"
   inkscape:window-x="-9"
   inkscape:window-y="-9"
   inkscape:window-maximized="1"
   inkscape:current-layer="svg4237" />
<metadata
   id="metadata4182">
<vectornator:setting
   key="IsolateActiveLayer"
   value="0" />
<vectornator:setting
   key="SnapToPoints"
   value="0" />
<vectornator:setting
   key="OutlineMode"
   value="0" />
<vectornator:setting
   key="RulersVisible"
   value="1" />
<vectornator:setting
   key="CMYKEnabledKey"
   value="0" />
<vectornator:setting
   key="SnapToEdges"
   value="0" />
<vectornator:setting
   key="DisplayWhiteBackground"
   value="0" />
<vectornator:setting
   key="ShowGrid"
   value="1" />
<vectornator:setting
   key="GridSpacing"
   value="36" />
<vectornator:setting
   key="Units"
   value="Pixels" />
<vectornator:setting
   key="DynamicGuides"
   value="0" />
<vectornator:setting
   key="SnapToGrid"
   value="0" />
<rdf:RDF><cc:Work
     rdf:about=""><dc:format>image/svg+xml</dc:format><dc:type
       rdf:resource="http://purl.org/dc/dcmitype/StillImage" /><dc:title></dc:title></cc:Work></rdf:RDF></metadata>
<defs
   id="defs4184" />
<g
   id="Layer"
   vectornator:layerName="Layer"
   transform="translate(-140,22)">
<g
   id="g4200"
   style="opacity:1">
<path
   d="m 274.353,761.31 h 27.903 v 92.844 h -18.077 v -62.799 c 0,-1.806 0.021,-4.336 0.063,-7.59 0.042,-3.255 0.063,-5.764 0.063,-7.527 l -17.574,77.916 H 247.898 L 230.45,776.238 c 0,1.763 0.021,4.272 0.063,7.527 0.042,3.254 0.063,5.784 0.063,7.59 v 62.799 H 212.498 V 761.31 h 28.219 l 16.881,73.003 z"
   id="path4186"
   inkscape:connector-curvature="0"
   style="opacity:1;fill:#ffffff" />
<path
   d="m 388.928,777.749 h -49.131 v 19.716 h 45.1 v 16.125 h -45.1 v 23.872 h 51.399 v 16.692 H 320.838 V 761.31 h 68.09 z"
   id="path4188"
   inkscape:connector-curvature="0"
   style="opacity:1;fill:#ffffff" />
<path
   d="m 473.774,761.31 v 16.439 h -27.778 v 76.405 H 426.469 V 777.749 H 398.565 V 761.31 Z"
   id="path4190"
   inkscape:connector-curvature="0"
   style="opacity:1;fill:#ffffff" />
<path
   d="M 484.985,854.154 V 761.31 h 19.212 v 35.399 h 36.281 V 761.31 h 19.275 v 92.844 h -19.275 v -41.446 h -36.281 v 41.446 z"
   id="path4192"
   inkscape:connector-curvature="0"
   style="opacity:1;fill:#ffffff" />
<path
   d="m 603.655,819.07 h 23.558 l -11.59,-36.533 z m 1.197,-57.76 h 21.92 l 32.88,92.844 h -21.038 l -5.984,-19.085 h -34.203 l -6.424,19.085 H 571.72 Z"
   id="path4194"
   inkscape:connector-curvature="0"
   style="opacity:1;fill:#ffffff" />
<path
   d="m 671.116,761.31 h 20.345 l 36.974,64.814 V 761.31 h 18.078 v 92.844 h -19.401 l -37.919,-65.948 v 65.948 h -18.077 z"
   id="path4196"
   inkscape:connector-curvature="0"
   style="opacity:1;fill:#ffffff" />
<path
   d="m 833.248,777.749 h -49.131 v 19.716 h 45.099 v 16.125 h -45.099 v 23.872 h 51.398 v 16.692 H 765.157 V 761.31 h 68.091 z"
   id="path4198"
   inkscape:connector-curvature="0"
   style="opacity:1;fill:#ffffff" />
</g>
<g
   id="g4232"
   style="opacity:1">
<path
   d="m 237.338,929.529 c 0,-2.789 -0.637,-5.257 -1.909,-7.404 -1.273,-2.147 -3.337,-3.221 -6.193,-3.221 -3.431,0 -5.788,1.627 -7.072,4.881 -0.664,1.726 -0.996,3.918 -0.996,6.574 0,4.206 1.118,7.161 3.353,8.865 1.329,0.996 2.9,1.494 4.715,1.494 2.634,0 4.643,-1.018 6.027,-3.054 1.383,-2.037 2.075,-4.748 2.075,-8.135 z m -5.379,-18.893 c 4.228,0 7.808,1.561 10.741,4.682 2.933,3.121 4.4,7.703 4.4,13.746 0,6.375 -1.434,11.234 -4.3,14.576 -2.867,3.343 -6.558,5.014 -11.074,5.014 -2.877,0 -5.268,-0.719 -7.171,-2.158 -1.041,-0.797 -2.059,-1.959 -3.055,-3.487 v 18.86 h -9.363 v -50.436 h 9.064 v 5.346 c 1.018,-1.572 2.103,-2.811 3.254,-3.719 2.103,-1.616 4.604,-2.424 7.504,-2.424 z"
   id="path4202"
   inkscape:connector-curvature="0"
   style="opacity:1;fill:#ffffff" />
<path
   d="m 273.223,940.951 c 2.767,0 4.892,-0.985 6.375,-2.955 1.483,-1.97 2.224,-4.77 2.224,-8.401 0,-3.63 -0.741,-6.424 -2.224,-8.383 -1.483,-1.959 -3.608,-2.939 -6.375,-2.939 -2.767,0 -4.898,0.98 -6.392,2.939 -1.494,1.959 -2.241,4.753 -2.241,8.383 0,3.631 0.747,6.431 2.241,8.401 1.494,1.97 3.625,2.955 6.392,2.955 z m 18.527,-11.356 c 0,5.313 -1.527,9.856 -4.582,13.63 -3.055,3.774 -7.692,5.661 -13.912,5.661 -6.22,0 -10.858,-1.887 -13.912,-5.661 -3.055,-3.774 -4.582,-8.317 -4.582,-13.63 0,-5.224 1.527,-9.75 4.582,-13.58 3.054,-3.829 7.692,-5.744 13.912,-5.744 6.22,0 10.857,1.915 13.912,5.744 3.055,3.83 4.582,8.356 4.582,13.58 z"
   id="path4204"
   inkscape:connector-curvature="0"
   style="opacity:1;fill:#ffffff" />
<path
   d="m 318.637,911.433 h 9.595 l 5.512,26.065 5.645,-26.065 h 9.861 l -10.492,36.192 h -9.729 l -5.678,-26.364 -5.744,26.364 h -9.828 l -10.16,-36.192 h 10.16 l 5.645,25.965 z"
   id="path4206"
   inkscape:connector-curvature="0"
   style="opacity:1;fill:#ffffff" />
<path
   d="m 371.787,918.273 c -2.191,0 -3.89,0.686 -5.097,2.059 -1.206,1.372 -1.964,3.231 -2.274,5.578 h 14.709 c -0.155,-2.501 -0.913,-4.4 -2.274,-5.694 -1.362,-1.295 -3.05,-1.943 -5.064,-1.943 z m 0,-7.803 c 3.01,0 5.722,0.565 8.135,1.694 2.413,1.129 4.405,2.911 5.976,5.345 1.417,2.148 2.336,4.638 2.756,7.471 0.244,1.66 0.343,4.051 0.299,7.172 h -24.769 c 0.132,3.63 1.272,6.176 3.419,7.637 1.306,0.907 2.878,1.361 4.715,1.361 1.948,0 3.531,-0.553 4.748,-1.66 0.664,-0.598 1.251,-1.428 1.76,-2.49 h 9.662 c -0.243,2.147 -1.361,4.327 -3.353,6.541 -3.099,3.519 -7.438,5.279 -13.016,5.279 -4.604,0 -8.666,-1.483 -12.185,-4.449 -3.52,-2.966 -5.28,-7.792 -5.28,-14.477 0,-6.264 1.588,-11.067 4.765,-14.41 3.176,-3.342 7.299,-5.014 12.368,-5.014 z"
   id="path4208"
   inkscape:connector-curvature="0"
   style="opacity:1;fill:#ffffff" />
<path
   d="m 418.031,910.57 c 0.177,0 0.327,0.006 0.448,0.017 0.122,0.011 0.393,0.027 0.814,0.049 v 9.696 c -0.598,-0.067 -1.129,-0.111 -1.594,-0.133 -0.465,-0.022 -0.841,-0.033 -1.129,-0.033 -3.807,0 -6.364,1.239 -7.67,3.718 -0.73,1.395 -1.095,3.542 -1.095,6.442 v 17.299 h -9.53 v -36.192 h 9.032 v 6.309 c 1.461,-2.413 2.733,-4.062 3.818,-4.947 1.771,-1.483 4.073,-2.225 6.906,-2.225 z"
   id="path4210"
   inkscape:connector-curvature="0"
   style="opacity:1;fill:#ffffff" />
<path
   d="m 442.162,918.273 c -2.191,0 -3.89,0.686 -5.097,2.059 -1.206,1.372 -1.964,3.231 -2.274,5.578 H 449.5 c -0.155,-2.501 -0.913,-4.4 -2.274,-5.694 -1.362,-1.295 -3.05,-1.943 -5.064,-1.943 z m 0,-7.803 c 3.01,0 5.722,0.565 8.135,1.694 2.413,1.129 4.405,2.911 5.976,5.345 1.417,2.148 2.336,4.638 2.756,7.471 0.244,1.66 0.343,4.051 0.299,7.172 h -24.769 c 0.132,3.63 1.272,6.176 3.419,7.637 1.306,0.907 2.878,1.361 4.715,1.361 1.948,0 3.531,-0.553 4.748,-1.66 0.664,-0.598 1.251,-1.428 1.76,-2.49 h 9.662 c -0.243,2.147 -1.361,4.327 -3.353,6.541 -3.099,3.519 -7.438,5.279 -13.016,5.279 -4.604,0 -8.666,-1.483 -12.185,-4.449 -3.52,-2.966 -5.28,-7.792 -5.28,-14.477 0,-6.264 1.588,-11.067 4.765,-14.41 3.176,-3.342 7.299,-5.014 12.368,-5.014 z"
   id="path4212"
   inkscape:connector-curvature="0"
   style="opacity:1;fill:#ffffff" />
<path
   d="m 482.098,910.57 c 2.191,0 4.139,0.481 5.843,1.444 1.705,0.963 3.088,2.297 4.151,4.001 V 898.75 h 9.595 v 48.875 h -9.197 v -5.014 c -1.35,2.147 -2.889,3.708 -4.615,4.682 -1.727,0.974 -3.874,1.461 -6.441,1.461 -4.228,0 -7.787,-1.71 -10.675,-5.13 -2.889,-3.42 -4.333,-7.809 -4.333,-13.165 0,-6.176 1.422,-11.035 4.266,-14.576 2.845,-3.542 6.646,-5.313 11.406,-5.313 z m 2.058,30.215 c 2.679,0 4.715,-0.996 6.11,-2.988 1.394,-1.993 2.091,-4.571 2.091,-7.737 0,-4.427 -1.117,-7.592 -3.353,-9.496 -1.373,-1.151 -2.966,-1.726 -4.781,-1.726 -2.767,0 -4.798,1.045 -6.093,3.137 -1.295,2.092 -1.943,4.687 -1.943,7.786 0,3.343 0.659,6.016 1.976,8.019 1.317,2.003 3.315,3.005 5.993,3.005 z"
   id="path4214"
   inkscape:connector-curvature="0"
   style="opacity:1;fill:#ffffff" />
<path
   d="m 550.812,939.855 c 2.214,0 4.084,-0.835 5.612,-2.507 1.527,-1.671 2.291,-4.333 2.291,-7.985 0,-3.431 -0.725,-6.043 -2.175,-7.836 -1.45,-1.793 -3.392,-2.689 -5.827,-2.689 -3.32,0 -5.612,1.56 -6.873,4.681 -0.664,1.66 -0.996,3.708 -0.996,6.143 0,2.103 0.354,3.973 1.062,5.611 1.284,3.055 3.586,4.582 6.906,4.582 z m -2.357,-29.285 c 1.815,0 3.398,0.277 4.748,0.83 2.302,0.952 4.162,2.701 5.578,5.246 v -5.213 h 9.197 v 34.332 c 0,4.671 -0.785,8.19 -2.357,10.559 -2.701,4.073 -7.88,6.109 -15.539,6.109 -4.626,0 -8.4,-0.907 -11.322,-2.722 -2.922,-1.815 -4.538,-4.527 -4.848,-8.135 h 10.293 c 0.266,1.107 0.697,1.904 1.295,2.39 1.018,0.864 2.734,1.295 5.146,1.295 3.409,0 5.689,-1.14 6.84,-3.42 0.753,-1.46 1.129,-3.917 1.129,-7.371 v -2.324 c -0.907,1.55 -1.881,2.712 -2.922,3.487 -1.881,1.438 -4.327,2.158 -7.338,2.158 -4.648,0 -8.361,-1.633 -11.139,-4.898 -2.778,-3.265 -4.167,-7.686 -4.167,-13.264 0,-5.379 1.339,-9.9 4.017,-13.564 2.679,-3.663 6.475,-5.495 11.389,-5.495 z"
   id="path4216"
   inkscape:connector-curvature="0"
   style="opacity:1;fill:#ffffff" />
<path
   d="m 599.514,910.57 c 0.177,0 0.326,0.006 0.448,0.017 0.122,0.011 0.393,0.027 0.813,0.049 v 9.696 c -0.597,-0.067 -1.129,-0.111 -1.593,-0.133 -0.465,-0.022 -0.842,-0.033 -1.129,-0.033 -3.808,0 -6.364,1.239 -7.67,3.718 -0.731,1.395 -1.096,3.542 -1.096,6.442 v 17.299 h -9.529 v -36.192 h 9.031 v 6.309 c 1.461,-2.413 2.734,-4.062 3.818,-4.947 1.771,-1.483 4.073,-2.225 6.907,-2.225 z"
   id="path4218"
   inkscape:connector-curvature="0"
   style="opacity:1;fill:#ffffff" />
<path
   d="m 629.322,930.027 c -0.597,0.376 -1.201,0.681 -1.809,0.913 -0.609,0.233 -1.445,0.448 -2.507,0.648 l -2.125,0.398 c -1.992,0.354 -3.42,0.786 -4.283,1.295 -1.461,0.863 -2.192,2.202 -2.192,4.018 0,1.615 0.448,2.783 1.345,3.502 0.896,0.72 1.987,1.08 3.27,1.08 2.037,0 3.913,-0.598 5.628,-1.793 1.716,-1.196 2.607,-3.376 2.673,-6.541 z m -5.744,-4.416 c 1.749,-0.221 2.999,-0.498 3.752,-0.83 1.35,-0.576 2.025,-1.472 2.025,-2.69 0,-1.483 -0.514,-2.506 -1.544,-3.071 -1.029,-0.564 -2.54,-0.846 -4.532,-0.846 -2.235,0 -3.818,0.553 -4.748,1.66 -0.664,0.819 -1.107,1.925 -1.328,3.32 h -9.131 c 0.199,-3.165 1.085,-5.766 2.656,-7.803 2.502,-3.187 6.796,-4.781 12.883,-4.781 3.962,0 7.482,0.786 10.559,2.357 3.077,1.572 4.615,4.538 4.615,8.899 v 16.601 c 0,1.151 0.022,2.546 0.066,4.184 0.067,1.24 0.255,2.081 0.565,2.523 0.31,0.443 0.775,0.808 1.394,1.096 v 1.395 h -10.292 c -0.288,-0.731 -0.487,-1.417 -0.598,-2.059 -0.111,-0.642 -0.199,-1.372 -0.266,-2.191 -1.306,1.416 -2.811,2.623 -4.515,3.619 -2.037,1.173 -4.339,1.76 -6.907,1.76 -3.276,0 -5.982,-0.936 -8.118,-2.806 -2.136,-1.871 -3.204,-4.521 -3.204,-7.952 0,-4.449 1.716,-7.67 5.147,-9.662 1.881,-1.085 4.648,-1.86 8.3,-2.325 z"
   id="path4220"
   inkscape:connector-curvature="0"
   style="opacity:1;fill:#ffffff" />
<path
   d="m 675.168,929.529 c 0,-2.789 -0.636,-5.257 -1.909,-7.404 -1.273,-2.147 -3.337,-3.221 -6.193,-3.221 -3.431,0 -5.788,1.627 -7.072,4.881 -0.664,1.726 -0.996,3.918 -0.996,6.574 0,4.206 1.118,7.161 3.353,8.865 1.329,0.996 2.9,1.494 4.715,1.494 2.634,0 4.643,-1.018 6.027,-3.054 1.383,-2.037 2.075,-4.748 2.075,-8.135 z m -5.379,-18.893 c 4.228,0 7.808,1.561 10.741,4.682 2.933,3.121 4.4,7.703 4.4,13.746 0,6.375 -1.434,11.234 -4.3,14.576 -2.867,3.343 -6.558,5.014 -11.073,5.014 -2.878,0 -5.269,-0.719 -7.172,-2.158 -1.041,-0.797 -2.059,-1.959 -3.055,-3.487 v 18.86 h -9.363 v -50.436 h 9.064 v 5.346 c 1.018,-1.572 2.103,-2.811 3.254,-3.719 2.103,-1.616 4.604,-2.424 7.504,-2.424 z"
   id="path4222"
   inkscape:connector-curvature="0"
   style="opacity:1;fill:#ffffff" />
<path
   d="m 714.771,910.504 c 2.236,0 4.267,0.387 6.093,1.162 1.826,0.774 3.326,1.959 4.499,3.552 0.996,1.351 1.605,2.74 1.826,4.167 0.222,1.428 0.332,3.758 0.332,6.99 v 21.25 h -9.662 v -22.014 c 0,-1.948 -0.332,-3.52 -0.996,-4.715 -0.863,-1.682 -2.501,-2.523 -4.914,-2.523 -2.501,0 -4.399,0.835 -5.694,2.507 -1.295,1.671 -1.943,4.056 -1.943,7.155 v 19.59 h -9.429 v -48.776 h 9.429 v 17.299 c 1.373,-2.103 2.961,-3.569 4.765,-4.399 1.804,-0.83 3.702,-1.245 5.694,-1.245 z"
   id="path4224"
   inkscape:connector-curvature="0"
   style="opacity:1;fill:#ffffff" />
<path
   d="m 749.129,907.117 h -9.596 v -8.733 h 9.596 z m -9.596,4.316 h 9.596 v 36.192 h -9.596 z"
   id="path4226"
   inkscape:connector-curvature="0"
   style="opacity:1;fill:#ffffff" />
<path
   d="m 782.955,924.416 c -0.177,-1.351 -0.631,-2.568 -1.361,-3.653 -1.063,-1.461 -2.712,-2.191 -4.948,-2.191 -3.187,0 -5.367,1.583 -6.541,4.748 -0.619,1.682 -0.929,3.918 -0.929,6.707 0,2.656 0.31,4.792 0.929,6.408 1.129,3.011 3.254,4.516 6.375,4.516 2.214,0 3.786,-0.598 4.715,-1.793 0.93,-1.195 1.494,-2.745 1.694,-4.649 h 9.662 c -0.222,2.878 -1.262,5.601 -3.121,8.168 -2.967,4.14 -7.36,6.209 -13.182,6.209 -5.822,0 -10.105,-1.726 -12.85,-5.179 -2.744,-3.453 -4.117,-7.936 -4.117,-13.448 0,-6.22 1.516,-11.056 4.549,-14.509 3.033,-3.453 7.216,-5.18 12.551,-5.18 4.538,0 8.251,1.018 11.139,3.055 2.889,2.036 4.599,5.633 5.13,10.791 z"
   id="path4228"
   inkscape:connector-curvature="0"
   style="opacity:1;fill:#ffffff" />
<path
   d="m 809.576,936.07 c 0.199,1.682 0.631,2.878 1.295,3.586 1.173,1.262 3.342,1.893 6.508,1.893 1.859,0 3.337,-0.277 4.432,-0.831 1.096,-0.553 1.644,-1.383 1.644,-2.49 0,-1.062 -0.443,-1.87 -1.328,-2.424 -0.886,-0.553 -4.173,-1.505 -9.861,-2.855 -4.096,-1.018 -6.984,-2.291 -8.666,-3.818 -1.683,-1.506 -2.524,-3.675 -2.524,-6.508 0,-3.343 1.312,-6.215 3.935,-8.616 2.623,-2.402 6.314,-3.603 11.073,-3.603 4.516,0 8.196,0.902 11.04,2.706 2.844,1.804 4.477,4.92 4.897,9.347 h -9.462 c -0.133,-1.218 -0.476,-2.181 -1.03,-2.889 -1.04,-1.284 -2.811,-1.926 -5.312,-1.926 -2.059,0 -3.525,0.321 -4.4,0.963 -0.874,0.642 -1.311,1.395 -1.311,2.258 0,1.085 0.465,1.87 1.394,2.357 0.93,0.51 4.217,1.384 9.862,2.623 3.763,0.886 6.585,2.225 8.466,4.018 1.86,1.815 2.79,4.084 2.79,6.807 0,3.586 -1.334,6.513 -4.001,8.782 -2.668,2.269 -6.791,3.403 -12.369,3.403 -5.688,0 -9.889,-1.201 -12.6,-3.602 -2.712,-2.402 -4.068,-5.462 -4.068,-9.181 z"
   id="path4230"
   inkscape:connector-curvature="0"
   style="opacity:1;fill:#ffffff" />
</g>
<path
   d="M 494.938,13.4375 C 421.68,17.1477 357.816,75.2184 359.781,149.312 c 0.146,5.51 1.019,10.758 2.313,15.844 -111.464,64.285 -164.325,193.251 -136.469,314.063 -1.635,2.575 -3.223,5.182 -4.687,7.843 -19.366,35.192 -22.856,79.196 -5.688,119 3.006,6.969 6.557,13.567 10.562,19.782 33.466,51.921 99.186,75.936 153.532,47.25 79.777,38.991 176.384,40.511 260.718,-4.5 5.233,-2.793 10.325,-5.748 15.313,-8.813 5.812,8.061 13.045,14.538 21.813,18.781 28.282,13.69 59.475,15.088 88.093,8.876 43.391,-9.42 81.916,-38.726 101.375,-82.376 32.295,-72.437 1.926,-162.256 -72.531,-188.843 -0.634,-0.227 -1.271,-0.323 -1.906,-0.531 0.222,-46.066 -10.567,-92.858 -33.657,-136.376 -26.636,-50.203 -66.037,-89.145 -112,-115.187 0.016,-0.168 0.049,-0.332 0.063,-0.5 2.552,-31.317 -7.403,-60.932 -23.531,-85.375 C 598.64,41.1896 557.418,15.8204 509.688,13.4375 c -4.951,-0.2472 -9.867,-0.2473 -14.75,0 z m 4.593,35.25 c 3.597,-0.1738 7.229,-0.1738 10.875,0 35.151,1.6756 65.523,19.5028 83.532,45.5625 11.877,17.188 19.223,38.01 17.343,60.031 -1.891,22.159 -23.269,39.917 -54.219,48.719 -16.211,4.611 -35.041,6.768 -55.093,5.812 -58.334,-2.78 -100.888,-26.799 -101.938,-64.593 -1.447,-52.101 45.552,-92.9248 99.5,-95.5315 z m 16.375,26.4063 c -6.185,0.4582 -9.242,5.3394 -6,11.0937 14.484,25.7025 36.804,51.5925 58.188,71.0005 9.511,8.632 14.352,0.527 13.687,-7.813 C 579.334,118.667 556.302,88.4255 523,76.25 c -2.646,-0.9676 -5.032,-1.309 -7.094,-1.1562 z M 636.812,225.594 c 1.321,-0.114 2.724,-0.079 4.188,0.094 3.905,0.46 8.281,1.991 12.844,4.781 57.424,35.111 88.703,100.591 81.406,159.5 -1.982,15.999 -14.185,29.61 -28.594,9.843 C 674.26,355.37 642.654,298.328 625.562,244.5 c -3.348,-10.545 2.01,-18.109 11.25,-18.906 z M 411.969,336.969 c 35.405,1.01 72.309,16.536 99.125,46.843 47.673,53.881 40.838,134.932 -0.875,172.126 -53.805,47.974 -136.89,42.286 -184.563,-11.594 -28.726,-32.467 -38.18,-75.207 -29.312,-114.438 5.848,-25.875 19.094,-50.887 41.218,-69.094 20.238,-16.653 46.869,-24.629 74.407,-23.843 z m 20.219,37.75 c -8.965,-0.671 -14.52,5.365 -11.282,13.906 14.464,38.15 40.062,78.191 65.938,109.187 11.509,13.787 20.449,3.721 21.531,-7.812 3.986,-42.464 -21.582,-88.603 -66.281,-112.219 -3.552,-1.876 -6.918,-2.839 -9.906,-3.062 z m 330.468,71.469 c 5.354,0.193 10.731,1.186 16.063,3.062 55.752,19.616 78.493,85.899 54.312,139.344 -14.571,32.204 -43.416,53.8 -75.906,60.75 -21.429,4.583 -44.822,3.569 -66,-6.532 -32.471,-15.486 -38.182,-69.335 -14,-122.781 19.647,-43.424 49.387,-71.821 80.187,-73.781 1.777,-0.113 3.56,-0.127 5.344,-0.062 z m -1.968,28.093 c -6.543,-0.471 -10.468,3.651 -7.938,9.469 11.299,25.989 30.751,53.267 50.219,74.406 8.658,9.402 14.974,2.566 15.531,-5.281 2.053,-28.894 -17.502,-60.354 -50.531,-76.5 -2.625,-1.283 -5.1,-1.937 -7.281,-2.094 z m -511.782,46.875 c 2.245,1.393 11.655,36.377 38.219,70.532 29.261,37.621 60.077,52.943 54.437,53.656 -27.808,3.516 -55.587,-1.481 -80.874,-33.563 -21.416,-27.169 -22.437,-65.356 -12.126,-90.437 0.089,-0.216 0.195,-0.281 0.344,-0.188 z"
   id="path4234"
   inkscape:connector-curvature="0"
   style="opacity:1;fill:#ffffff" />
</g>
</svg>