<?xml version="1.0" encoding="UTF-8" standalone="no"?> <!-- Created with Vectornator for iOS (http://vectornator.io/) --><!DOCTYPE svg PUBLIC "-//W3C//DTD SVG 1.1//EN" "http://www.w3.org/Graphics/SVG/1.1/DTD/svg11.dtd">
<svg style="fill-rule:evenodd;clip-rule:evenodd;stroke-linecap:round;stroke-linejoin:round;" xmlns:vectornator="http://vectornator.io" xmlns:xlink="http://www.w3.org/1999/xlink" xmlns="http://www.w3.org/2000/svg" xml:space="preserve" version="1.1" viewBox="0 0 1024 1024">
<metadata>
<vectornator:setting key="IsolateActiveLayer" value="0"/>
<vectornator:setting key="SnapToPoints" value="0"/>
<vectornator:setting key="OutlineMode" value="0"/>
<vectornator:setting key="RulersVisible" value="1"/>
<vectornator:setting key="CMYKEnabledKey" value="0"/>
<vectornator:setting key="SnapToEdges" value="0"/>
<vectornator:setting key="DisplayWhiteBackground" value="0"/>
<vectornator:setting key="ShowGrid" value="1"/>
<vectornator:setting key="GridSpacing" value="36"/>
<vectornator:setting key="Units" value="Pixels"/>
<vectornator:setting key="DynamicGuides" value="0"/>
<vectornator:setting key="SnapToGrid" value="0"/>
</metadata>
<defs/>
<g id="Layer" vectornator:layerName="Layer">
<g opacity="1">
<path d="M274.353+761.31L302.256+761.31L302.256+854.154L284.179+854.154L284.179+791.355C284.179+789.549+284.2+787.019+284.242+783.765C284.284+780.51+284.305+778.001+284.305+776.238L266.731+854.154L247.898+854.154L230.45+776.238C230.45+778.001+230.471+780.51+230.513+783.765C230.555+787.019+230.576+789.549+230.576+791.355L230.576+854.154L212.498+854.154L212.498+761.31L240.717+761.31L257.598+834.313L274.353+761.31Z" opacity="1" fill="#ffffff"/>
<path d="M388.928+777.749L339.797+777.749L339.797+797.465L384.897+797.465L384.897+813.59L339.797+813.59L339.797+837.462L391.196+837.462L391.196+854.154L320.838+854.154L320.838+761.31L388.928+761.31L388.928+777.749Z" opacity="1" fill="#ffffff"/>
<path d="M473.774+761.31L473.774+777.749L445.996+777.749L445.996+854.154L426.469+854.154L426.469+777.749L398.565+777.749L398.565+761.31L473.774+761.31Z" opacity="1" fill="#ffffff"/>
<path d="M484.985+854.154L484.985+761.31L504.197+761.31L504.197+796.709L540.478+796.709L540.478+761.31L559.753+761.31L559.753+854.154L540.478+854.154L540.478+812.708L504.197+812.708L504.197+854.154L484.985+854.154Z" opacity="1" fill="#ffffff"/>
<path d="M603.655+819.07L627.213+819.07L615.623+782.537L603.655+819.07ZM604.852+761.31L626.772+761.31L659.652+854.154L638.614+854.154L632.63+835.069L598.427+835.069L592.003+854.154L571.72+854.154L604.852+761.31Z" opacity="1" fill="#ffffff"/>
<path d="M671.116+761.31L691.461+761.31L728.435+826.124L728.435+761.31L746.513+761.31L746.513+854.154L727.112+854.154L689.193+788.206L689.193+854.154L671.116+854.154L671.116+761.31Z" opacity="1" fill="#ffffff"/>
<path d="M833.248+777.749L784.117+777.749L784.117+797.465L829.216+797.465L829.216+813.59L784.117+813.59L784.117+837.462L835.515+837.462L835.515+854.154L765.157+854.154L765.157+761.31L833.248+761.31L833.248+777.749Z" opacity="1" fill="#ffffff"/>
</g>
<g opacity="1">
<path d="M237.338+929.529C237.338+926.74+236.701+924.272+235.429+922.125C234.156+919.978+232.092+918.904+229.236+918.904C225.805+918.904+223.448+920.531+222.164+923.785C221.5+925.511+221.168+927.703+221.168+930.359C221.168+934.565+222.286+937.52+224.521+939.224C225.85+940.22+227.421+940.718+229.236+940.718C231.87+940.718+233.879+939.7+235.263+937.664C236.646+935.627+237.338+932.916+237.338+929.529ZM231.959+910.636C236.187+910.636+239.767+912.197+242.7+915.318C245.633+918.439+247.1+923.021+247.1+929.064C247.1+935.439+245.666+940.298+242.8+943.64C239.933+946.983+236.242+948.654+231.726+948.654C228.849+948.654+226.458+947.935+224.555+946.496C223.514+945.699+222.496+944.537+221.5+943.009L221.5+961.869L212.137+961.869L212.137+911.433L221.201+911.433L221.201+916.779C222.219+915.207+223.304+913.968+224.455+913.06C226.558+911.444+229.059+910.636+231.959+910.636Z" opacity="1" fill="#ffffff"/>
<path d="M273.223+940.951C275.99+940.951+278.115+939.966+279.598+937.996C281.081+936.026+281.822+933.226+281.822+929.595C281.822+925.965+281.081+923.171+279.598+921.212C278.115+919.253+275.99+918.273+273.223+918.273C270.456+918.273+268.325+919.253+266.831+921.212C265.337+923.171+264.59+925.965+264.59+929.595C264.59+933.226+265.337+936.026+266.831+937.996C268.325+939.966+270.456+940.951+273.223+940.951ZM291.75+929.595C291.75+934.908+290.223+939.451+287.168+943.225C284.113+946.999+279.476+948.886+273.256+948.886C267.036+948.886+262.398+946.999+259.344+943.225C256.289+939.451+254.762+934.908+254.762+929.595C254.762+924.371+256.289+919.845+259.344+916.015C262.398+912.186+267.036+910.271+273.256+910.271C279.476+910.271+284.113+912.186+287.168+916.015C290.223+919.845+291.75+924.371+291.75+929.595Z" opacity="1" fill="#ffffff"/>
<path d="M318.637+911.433L328.232+911.433L333.744+937.498L339.389+911.433L349.25+911.433L338.758+947.625L329.029+947.625L323.351+921.261L317.607+947.625L307.779+947.625L297.619+911.433L307.779+911.433L313.424+937.398L318.637+911.433Z" opacity="1" fill="#ffffff"/>
<path d="M371.787+918.273C369.596+918.273+367.897+918.959+366.69+920.332C365.484+921.704+364.726+923.563+364.416+925.91L379.125+925.91C378.97+923.409+378.212+921.51+376.851+920.216C375.489+918.921+373.801+918.273+371.787+918.273ZM371.787+910.47C374.797+910.47+377.509+911.035+379.922+912.164C382.335+913.293+384.327+915.075+385.898+917.509C387.315+919.657+388.234+922.147+388.654+924.98C388.898+926.64+388.997+929.031+388.953+932.152L364.184+932.152C364.316+935.782+365.456+938.328+367.603+939.789C368.909+940.696+370.481+941.15+372.318+941.15C374.266+941.15+375.849+940.597+377.066+939.49C377.73+938.892+378.317+938.062+378.826+937L388.488+937C388.245+939.147+387.127+941.327+385.135+943.541C382.036+947.06+377.697+948.82+372.119+948.82C367.515+948.82+363.453+947.337+359.934+944.371C356.414+941.405+354.654+936.579+354.654+929.894C354.654+923.63+356.242+918.827+359.419+915.484C362.595+912.142+366.718+910.47+371.787+910.47Z" opacity="1" fill="#ffffff"/>
<path d="M418.031+910.57C418.208+910.57+418.358+910.576+418.479+910.587C418.601+910.598+418.872+910.614+419.293+910.636L419.293+920.332C418.695+920.265+418.164+920.221+417.699+920.199C417.234+920.177+416.858+920.166+416.57+920.166C412.763+920.166+410.206+921.405+408.9+923.884C408.17+925.279+407.805+927.426+407.805+930.326L407.805+947.625L398.275+947.625L398.275+911.433L407.307+911.433L407.307+917.742C408.768+915.329+410.04+913.68+411.125+912.795C412.896+911.312+415.198+910.57+418.031+910.57Z" opacity="1" fill="#ffffff"/>
<path d="M442.162+918.273C439.971+918.273+438.272+918.959+437.065+920.332C435.859+921.704+435.101+923.563+434.791+925.91L449.5+925.91C449.345+923.409+448.587+921.51+447.226+920.216C445.864+918.921+444.176+918.273+442.162+918.273ZM442.162+910.47C445.172+910.47+447.884+911.035+450.297+912.164C452.71+913.293+454.702+915.075+456.273+917.509C457.69+919.657+458.609+922.147+459.029+924.98C459.273+926.64+459.372+929.031+459.328+932.152L434.559+932.152C434.691+935.782+435.831+938.328+437.978+939.789C439.284+940.696+440.856+941.15+442.693+941.15C444.641+941.15+446.224+940.597+447.441+939.49C448.105+938.892+448.692+938.062+449.201+937L458.863+937C458.62+939.147+457.502+941.327+455.51+943.541C452.411+947.06+448.072+948.82+442.494+948.82C437.89+948.82+433.828+947.337+430.309+944.371C426.789+941.405+425.029+936.579+425.029+929.894C425.029+923.63+426.617+918.827+429.794+915.484C432.97+912.142+437.093+910.47+442.162+910.47Z" opacity="1" fill="#ffffff"/>
<path d="M482.098+910.57C484.289+910.57+486.237+911.051+487.941+912.014C489.646+912.977+491.029+914.311+492.092+916.015L492.092+898.75L501.687+898.75L501.687+947.625L492.49+947.625L492.49+942.611C491.14+944.758+489.601+946.319+487.875+947.293C486.148+948.267+484.001+948.754+481.434+948.754C477.206+948.754+473.647+947.044+470.759+943.624C467.87+940.204+466.426+935.815+466.426+930.459C466.426+924.283+467.848+919.424+470.692+915.883C473.537+912.341+477.338+910.57+482.098+910.57ZM484.156+940.785C486.835+940.785+488.871+939.789+490.266+937.797C491.66+935.804+492.357+933.226+492.357+930.06C492.357+925.633+491.24+922.468+489.004+920.564C487.631+919.413+486.038+918.838+484.223+918.838C481.456+918.838+479.425+919.883+478.13+921.975C476.835+924.067+476.187+926.662+476.187+929.761C476.187+933.104+476.846+935.777+478.163+937.78C479.48+939.783+481.478+940.785+484.156+940.785Z" opacity="1" fill="#ffffff"/>
<path d="M550.812+939.855C553.026+939.855+554.896+939.02+556.424+937.348C557.951+935.677+558.715+933.015+558.715+929.363C558.715+925.932+557.99+923.32+556.54+921.527C555.09+919.734+553.148+918.838+550.713+918.838C547.393+918.838+545.101+920.398+543.84+923.519C543.176+925.179+542.844+927.227+542.844+929.662C542.844+931.765+543.198+933.635+543.906+935.273C545.19+938.328+547.492+939.855+550.812+939.855ZM548.455+910.57C550.27+910.57+551.853+910.847+553.203+911.4C555.505+912.352+557.365+914.101+558.781+916.646L558.781+911.433L567.978+911.433L567.978+945.765C567.978+950.436+567.193+953.955+565.621+956.324C562.92+960.397+557.741+962.433+550.082+962.433C545.456+962.433+541.682+961.526+538.76+959.711C535.838+957.896+534.222+955.184+533.912+951.576L544.205+951.576C544.471+952.683+544.902+953.48+545.5+953.966C546.518+954.83+548.234+955.261+550.646+955.261C554.055+955.261+556.335+954.121+557.486+951.841C558.239+950.381+558.615+947.924+558.615+944.47L558.615+942.146C557.708+943.696+556.734+944.858+555.693+945.633C553.812+947.071+551.366+947.791+548.355+947.791C543.707+947.791+539.994+946.158+537.216+942.893C534.438+939.628+533.049+935.207+533.049+929.629C533.049+924.25+534.388+919.729+537.066+916.065C539.745+912.402+543.541+910.57+548.455+910.57Z" opacity="1" fill="#ffffff"/>
<path d="M599.514+910.57C599.691+910.57+599.84+910.576+599.962+910.587C600.084+910.598+600.355+910.614+600.775+910.636L600.775+920.332C600.178+920.265+599.646+920.221+599.182+920.199C598.717+920.177+598.34+920.166+598.053+920.166C594.245+920.166+591.689+921.405+590.383+923.884C589.652+925.279+589.287+927.426+589.287+930.326L589.287+947.625L579.758+947.625L579.758+911.433L588.789+911.433L588.789+917.742C590.25+915.329+591.523+913.68+592.607+912.795C594.378+911.312+596.68+910.57+599.514+910.57Z" opacity="1" fill="#ffffff"/>
<path d="M629.322+930.027C628.725+930.403+628.121+930.708+627.513+930.94C626.904+931.173+626.068+931.388+625.006+931.588L622.881+931.986C620.889+932.34+619.461+932.772+618.598+933.281C617.137+934.144+616.406+935.483+616.406+937.299C616.406+938.914+616.854+940.082+617.751+940.801C618.647+941.521+619.738+941.881+621.021+941.881C623.058+941.881+624.934+941.283+626.649+940.088C628.365+938.892+629.256+936.712+629.322+933.547L629.322+930.027ZM623.578+925.611C625.327+925.39+626.577+925.113+627.33+924.781C628.68+924.205+629.355+923.309+629.355+922.091C629.355+920.608+628.841+919.585+627.811+919.02C626.782+918.456+625.271+918.174+623.279+918.174C621.044+918.174+619.461+918.727+618.531+919.834C617.867+920.653+617.424+921.759+617.203+923.154L608.072+923.154C608.271+919.989+609.157+917.388+610.728+915.351C613.23+912.164+617.524+910.57+623.611+910.57C627.573+910.57+631.093+911.356+634.17+912.927C637.247+914.499+638.785+917.465+638.785+921.826L638.785+938.427C638.785+939.578+638.807+940.973+638.851+942.611C638.918+943.851+639.106+944.692+639.416+945.134C639.726+945.577+640.191+945.942+640.81+946.23L640.81+947.625L630.518+947.625C630.23+946.894+630.031+946.208+629.92+945.566C629.809+944.924+629.721+944.194+629.654+943.375C628.348+944.791+626.843+945.998+625.139+946.994C623.102+948.167+620.8+948.754+618.232+948.754C614.956+948.754+612.25+947.818+610.114+945.948C607.978+944.077+606.91+941.427+606.91+937.996C606.91+933.547+608.626+930.326+612.057+928.334C613.938+927.249+616.705+926.474+620.357+926.009L623.578+925.611Z" opacity="1" fill="#ffffff"/>
<path d="M675.168+929.529C675.168+926.74+674.532+924.272+673.259+922.125C671.986+919.978+669.922+918.904+667.066+918.904C663.635+918.904+661.278+920.531+659.994+923.785C659.33+925.511+658.998+927.703+658.998+930.359C658.998+934.565+660.116+937.52+662.351+939.224C663.68+940.22+665.251+940.718+667.066+940.718C669.7+940.718+671.709+939.7+673.093+937.664C674.476+935.627+675.168+932.916+675.168+929.529ZM669.789+910.636C674.017+910.636+677.597+912.197+680.53+915.318C683.463+918.439+684.93+923.021+684.93+929.064C684.93+935.439+683.496+940.298+680.63+943.64C677.763+946.983+674.072+948.654+669.557+948.654C666.679+948.654+664.288+947.935+662.385+946.496C661.344+945.699+660.326+944.537+659.33+943.009L659.33+961.869L649.967+961.869L649.967+911.433L659.031+911.433L659.031+916.779C660.049+915.207+661.134+913.968+662.285+913.06C664.388+911.444+666.889+910.636+669.789+910.636Z" opacity="1" fill="#ffffff"/>
<path d="M714.771+910.504C717.007+910.504+719.038+910.891+720.864+911.666C722.69+912.44+724.19+913.625+725.363+915.218C726.359+916.569+726.968+917.958+727.189+919.385C727.411+920.813+727.521+923.143+727.521+926.375L727.521+947.625L717.859+947.625L717.859+925.611C717.859+923.663+717.527+922.091+716.863+920.896C716+919.214+714.362+918.373+711.949+918.373C709.448+918.373+707.55+919.208+706.255+920.88C704.96+922.551+704.312+924.936+704.312+928.035L704.312+947.625L694.883+947.625L694.883+898.849L704.312+898.849L704.312+916.148C705.685+914.045+707.273+912.579+709.077+911.749C710.881+910.919+712.779+910.504+714.771+910.504Z" opacity="1" fill="#ffffff"/>
<path d="M749.129+907.117L739.533+907.117L739.533+898.384L749.129+898.384L749.129+907.117ZM739.533+911.433L749.129+911.433L749.129+947.625L739.533+947.625L739.533+911.433Z" opacity="1" fill="#ffffff"/>
<path d="M782.955+924.416C782.778+923.065+782.324+921.848+781.594+920.763C780.531+919.302+778.882+918.572+776.646+918.572C773.459+918.572+771.279+920.155+770.105+923.32C769.486+925.002+769.176+927.238+769.176+930.027C769.176+932.683+769.486+934.819+770.105+936.435C771.234+939.446+773.359+940.951+776.48+940.951C778.694+940.951+780.266+940.353+781.195+939.158C782.125+937.963+782.689+936.413+782.889+934.509L792.551+934.509C792.329+937.387+791.289+940.11+789.43+942.677C786.463+946.817+782.07+948.886+776.248+948.886C770.426+948.886+766.143+947.16+763.398+943.707C760.654+940.254+759.281+935.771+759.281+930.259C759.281+924.039+760.797+919.203+763.83+915.75C766.863+912.297+771.046+910.57+776.381+910.57C780.919+910.57+784.632+911.588+787.52+913.625C790.409+915.661+792.119+919.258+792.65+924.416L782.955+924.416Z" opacity="1" fill="#ffffff"/>
<path d="M809.576+936.07C809.775+937.752+810.207+938.948+810.871+939.656C812.044+940.918+814.213+941.549+817.379+941.549C819.238+941.549+820.716+941.272+821.811+940.718C822.907+940.165+823.455+939.335+823.455+938.228C823.455+937.166+823.012+936.358+822.127+935.804C821.241+935.251+817.954+934.299+812.266+932.949C808.17+931.931+805.282+930.658+803.6+929.131C801.917+927.625+801.076+925.456+801.076+922.623C801.076+919.28+802.388+916.408+805.011+914.007C807.634+911.605+811.325+910.404+816.084+910.404C820.6+910.404+824.28+911.306+827.124+913.11C829.968+914.914+831.601+918.03+832.021+922.457L822.559+922.457C822.426+921.239+822.083+920.276+821.529+919.568C820.489+918.284+818.718+917.642+816.217+917.642C814.158+917.642+812.692+917.963+811.817+918.605C810.943+919.247+810.506+920+810.506+920.863C810.506+921.948+810.971+922.733+811.9+923.22C812.83+923.73+816.117+924.604+821.762+925.843C825.525+926.729+828.347+928.068+830.228+929.861C832.088+931.676+833.018+933.945+833.018+936.668C833.018+940.254+831.684+943.181+829.017+945.45C826.349+947.719+822.226+948.853+816.648+948.853C810.96+948.853+806.759+947.652+804.048+945.251C801.336+942.849+799.98+939.789+799.98+936.07L809.576+936.07Z" opacity="1" fill="#ffffff"/>
</g>
<path d="M494.938+13.4375C421.68+17.1477+357.816+75.2184+359.781+149.312C359.927+154.822+360.8+160.07+362.094+165.156C250.63+229.441+197.769+358.407+225.625+479.219C223.99+481.794+222.402+484.401+220.938+487.062C201.572+522.254+198.082+566.258+215.25+606.062C218.256+613.031+221.807+619.629+225.812+625.844C259.278+677.765+324.998+701.78+379.344+673.094C459.121+712.085+555.728+713.605+640.062+668.594C645.295+665.801+650.387+662.846+655.375+659.781C661.187+667.842+668.42+674.319+677.188+678.562C705.47+692.252+736.663+693.65+765.281+687.438C808.672+678.018+847.197+648.712+866.656+605.062C898.951+532.625+868.582+442.806+794.125+416.219C793.491+415.992+792.854+415.896+792.219+415.688C792.441+369.622+781.652+322.83+758.562+279.312C731.926+229.109+692.525+190.167+646.562+164.125C646.578+163.957+646.611+163.793+646.625+163.625C649.177+132.308+639.222+102.693+623.094+78.25C598.64+41.1896+557.418+15.8204+509.688+13.4375C504.737+13.1903+499.821+13.1902+494.938+13.4375ZM499.531+48.6875C503.128+48.5137+506.76+48.5137+510.406+48.6875C545.557+50.3631+575.929+68.1903+593.938+94.25C605.815+111.438+613.161+132.26+611.281+154.281C609.39+176.44+588.012+194.198+557.062+203C540.851+207.611+522.021+209.768+501.969+208.812C443.635+206.032+401.081+182.013+400.031+144.219C398.584+92.118+445.583+51.2942+499.531+48.6875ZM515.906+75.0938C509.721+75.552+506.664+80.4332+509.906+86.1875C524.39+111.89+546.71+137.78+568.094+157.188C577.605+165.82+582.446+157.715+581.781+149.375C579.334+118.667+556.302+88.4255+523+76.25C520.354+75.2824+517.968+74.941+515.906+75.0938ZM636.812+225.594C638.133+225.48+639.536+225.515+641+225.688C644.905+226.148+649.281+227.679+653.844+230.469C711.268+265.58+742.547+331.06+735.25+389.969C733.268+405.968+721.065+419.579+706.656+399.812C674.26+355.37+642.654+298.328+625.562+244.5C622.214+233.955+627.572+226.391+636.812+225.594ZM411.969+336.969C447.374+337.979+484.278+353.505+511.094+383.812C558.767+437.693+551.932+518.744+510.219+555.938C456.414+603.912+373.329+598.224+325.656+544.344C296.93+511.877+287.476+469.137+296.344+429.906C302.192+404.031+315.438+379.019+337.562+360.812C357.8+344.159+384.431+336.183+411.969+336.969ZM432.188+374.719C423.223+374.048+417.668+380.084+420.906+388.625C435.37+426.775+460.968+466.816+486.844+497.812C498.353+511.599+507.293+501.533+508.375+490C512.361+447.536+486.793+401.397+442.094+377.781C438.542+375.905+435.176+374.942+432.188+374.719ZM762.656+446.188C768.01+446.381+773.387+447.374+778.719+449.25C834.471+468.866+857.212+535.149+833.031+588.594C818.46+620.798+789.615+642.394+757.125+649.344C735.696+653.927+712.303+652.913+691.125+642.812C658.654+627.326+652.943+573.477+677.125+520.031C696.772+476.607+726.512+448.21+757.312+446.25C759.089+446.137+760.872+446.123+762.656+446.188ZM760.688+474.281C754.145+473.81+750.22+477.932+752.75+483.75C764.049+509.739+783.501+537.017+802.969+558.156C811.627+567.558+817.943+560.722+818.5+552.875C820.553+523.981+800.998+492.521+767.969+476.375C765.344+475.092+762.869+474.438+760.688+474.281ZM248.906+521.156C251.151+522.549+260.561+557.533+287.125+591.688C316.386+629.309+347.202+644.631+341.562+645.344C313.754+648.86+285.975+643.863+260.688+611.781C239.272+584.612+238.251+546.425+248.562+521.344C248.651+521.128+248.757+521.063+248.906+521.156Z" opacity="1" fill="#ffffff"/>
</g>
</svg>
