<?xml version="1.0" encoding="UTF-8" standalone="no"?>
<svg
   xmlns:dc="http://purl.org/dc/elements/1.1/"
   xmlns:cc="http://creativecommons.org/ns#"
   xmlns:rdf="http://www.w3.org/1999/02/22-rdf-syntax-ns#"
   xmlns:svg="http://www.w3.org/2000/svg"
   xmlns="http://www.w3.org/2000/svg"
   xmlns:xlink="http://www.w3.org/1999/xlink"
   xmlns:sodipodi="http://sodipodi.sourceforge.net/DTD/sodipodi-0.dtd"
   xmlns:inkscape="http://www.inkscape.org/namespaces/inkscape"
   width="500"
   height="500"
   viewBox="0 0 132.29167 132.29167"
   version="1.1"
   id="svg8"
   inkscape:version="1.0.1 (3bc2e813f5, 2020-09-07)"
   sodipodi:docname="Buffer.svg">
  <defs
     id="defs2">
    <linearGradient
       inkscape:collect="always"
       xlink:href="#linearGradient997"
       id="linearGradient1001-9"
       x1="66.53019"
       y1="129.67029"
       x2="66.53019"
       y2="2.8013468"
       gradientUnits="userSpaceOnUse"
       gradientTransform="translate(-4.5817578e-6)" />
    <linearGradient
       inkscape:collect="always"
       id="linearGradient997">
      <stop
         style="stop-color:#006464;stop-opacity:1"
         offset="0"
         id="stop993" />
      <stop
         style="stop-color:#00e0e0;stop-opacity:1"
         offset="1"
         id="stop995" />
    </linearGradient>
    <filter
       style="color-interpolation-filters:sRGB;"
       inkscape:label="Drop Shadow"
       id="filter2800">
      <feFlood
         flood-opacity="0.501961"
         flood-color="rgb(0,0,0)"
         result="flood"
         id="feFlood2790" />
      <feComposite
         in="flood"
         in2="SourceGraphic"
         operator="in"
         result="composite1"
         id="feComposite2792" />
      <feGaussianBlur
         in="composite1"
         stdDeviation="3"
         result="blur"
         id="feGaussianBlur2794" />
      <feOffset
         dx="0"
         dy="0"
         result="offset"
         id="feOffset2796" />
      <feComposite
         in="SourceGraphic"
         in2="offset"
         operator="over"
         result="composite2"
         id="feComposite2798" />
    </filter>
  </defs>
  <sodipodi:namedview
     id="base"
     pagecolor="#ffffff"
     bordercolor="#666666"
     borderopacity="1.0"
     inkscape:pageopacity="0.0"
     inkscape:pageshadow="2"
     inkscape:zoom="1.2233521"
     inkscape:cx="280.03385"
     inkscape:cy="212.15871"
     inkscape:document-units="px"
     inkscape:current-layer="layer1"
     inkscape:document-rotation="0"
     showgrid="true"
     units="px"
     inkscape:pagecheckerboard="true"
     inkscape:window-width="2560"
     inkscape:window-height="1361"
     inkscape:window-x="-9"
     inkscape:window-y="-9"
     inkscape:window-maximized="1"
     inkscape:snap-midpoints="false"
     inkscape:snap-grids="true"
     showguides="true">
    <inkscape:grid
       type="xygrid"
       id="grid2749" />
  </sodipodi:namedview>
  <metadata
     id="metadata5">
    <rdf:RDF>
      <cc:Work
         rdf:about="">
        <dc:format>image/svg+xml</dc:format>
        <dc:type
           rdf:resource="http://purl.org/dc/dcmitype/StillImage" />
        <dc:title></dc:title>
      </cc:Work>
    </rdf:RDF>
  </metadata>
  <g
     inkscape:label="Layer 1"
     inkscape:groupmode="layer"
     id="layer1">
    <circle
       id="path18-6"
       cx="66.145836"
       cy="66.145836"
       style="fill:url(#linearGradient1001-9);fill-opacity:1;stroke-width:0.1524;stroke-miterlimit:4;stroke-dasharray:none"
       r="63.5" />
    <g
       id="g13144"
       transform="matrix(0.05846854,0,0,0.05846854,37.994598,51.57446)"
       style="fill:#ffffff">
      <g
         id="g13142"
         style="fill:#ffffff" />
    </g>
    <g
       id="g2724"
       transform="matrix(1.3665869,0,0,1.3665869,25.461298,26.244473)"
       style="fill:#ffffff;filter:url(#filter2800)">
      <path
         d="m 31.707,33.07 c -0.87,0.027 -1.74,0.042 -2.606,0.042 -0.869,0 -1.742,-0.014 -2.614,-0.042 C 19.146,32.869 13.296,31.832 9.084,30.353 7.104,29.685 5.409,28.899 4.1,28 v 7.111 0.5 0.5 1.289 c 2.846,2.971 12.394,5.711 25,5.711 12.606,0 22.154,-2.74 25,-5.711 v -1.289 -0.5 -0.5 V 28 c -1.318,0.905 -3.028,1.697 -5.025,2.367 -4.21,1.472 -10.048,2.503 -17.368,2.703 z"
         id="path2716"
         style="fill:#ffffff" />
      <path
         d="M 4.1,14.889 V 22 22.5 23 24.289 c 2.638,2.754 11.033,5.31 22.286,5.668 0.115,0.004 0.233,0.005 0.349,0.008 0.326,0.009 0.651,0.018 0.982,0.023 0.457,0.008 0.918,0.012 1.383,0.012 0.465,0 0.926,-0.004 1.383,-0.011 0.33,-0.005 0.656,-0.014 0.982,-0.023 0.116,-0.003 0.234,-0.005 0.349,-0.008 C 43.067,29.599 51.462,27.043 54.1,24.29 V 23 22.5 22 14.889 C 49.233,18.232 38.944,20 29.1,20 19.256,20 8.968,18.232 4.1,14.889 Z"
         id="path2718"
         style="fill:#ffffff" />
      <path
         d="M 53.965,8.542 C 52.843,4.241 44.215,0 29.1,0 14.023,0 5.404,4.22 4.247,8.51 4.162,8.657 4.1,8.818 4.1,9 v 0.5 1.806 C 6.937,14.267 16.417,17 29.1,17 c 12.683,0 22.164,-2.733 25,-5.694 V 9.5 9 c 0,-0.168 -0.056,-0.319 -0.135,-0.458 z"
         id="path2720"
         style="fill:#ffffff" />
      <path
         d="m 4.1,41 v 8.201 c 0,0.162 0.043,0.315 0.117,0.451 1.181,4.895 11.747,8.549 24.883,8.549 13.106,0 23.655,-3.639 24.875,-8.516 0.08,-0.144 0.125,-0.309 0.125,-0.484 v -8.199 c -4.135,2.911 -12.655,5.199 -25,5.199 -12.346,0 -20.866,-2.29 -25,-5.201 z"
         id="path2722"
         style="fill:#ffffff" />
    </g>
  </g>
</svg>
