<?xml version="1.0" encoding="UTF-8" standalone="no"?>
<svg
   xmlns:dc="http://purl.org/dc/elements/1.1/"
   xmlns:cc="http://creativecommons.org/ns#"
   xmlns:rdf="http://www.w3.org/1999/02/22-rdf-syntax-ns#"
   xmlns:svg="http://www.w3.org/2000/svg"
   xmlns="http://www.w3.org/2000/svg"
   xmlns:xlink="http://www.w3.org/1999/xlink"
   xmlns:sodipodi="http://sodipodi.sourceforge.net/DTD/sodipodi-0.dtd"
   xmlns:inkscape="http://www.inkscape.org/namespaces/inkscape"
   width="500"
   height="500"
   viewBox="0 0 132.29167 132.29167"
   version="1.1"
   id="svg8"
   inkscape:version="1.0.1 (3bc2e813f5, 2020-09-07)"
   sodipodi:docname="CommandList.svg">
  <defs
     id="defs2">
    <linearGradient
       inkscape:collect="always"
       xlink:href="#linearGradient997"
       id="linearGradient1001"
       x1="66.53019"
       y1="129.67029"
       x2="66.53019"
       y2="2.8013468"
       gradientUnits="userSpaceOnUse"
       gradientTransform="translate(1.0457031e-6)" />
    <linearGradient
       inkscape:collect="always"
       id="linearGradient997">
      <stop
         style="stop-color:#008000;stop-opacity:1"
         offset="0"
         id="stop993" />
      <stop
         style="stop-color:#00e200;stop-opacity:1"
         offset="1"
         id="stop995" />
    </linearGradient>
    <filter
       style="color-interpolation-filters:sRGB;"
       inkscape:label="Drop Shadow"
       id="filter4875">
      <feFlood
         flood-opacity="0.501961"
         flood-color="rgb(0,0,0)"
         result="flood"
         id="feFlood4865" />
      <feComposite
         in="flood"
         in2="SourceGraphic"
         operator="in"
         result="composite1"
         id="feComposite4867" />
      <feGaussianBlur
         in="composite1"
         stdDeviation="10"
         result="blur"
         id="feGaussianBlur4869" />
      <feOffset
         dx="0"
         dy="0"
         result="offset"
         id="feOffset4871" />
      <feComposite
         in="SourceGraphic"
         in2="offset"
         operator="over"
         result="composite2"
         id="feComposite4873" />
    </filter>
  </defs>
  <sodipodi:namedview
     id="base"
     pagecolor="#ffffff"
     bordercolor="#666666"
     borderopacity="1.0"
     inkscape:pageopacity="0.0"
     inkscape:pageshadow="2"
     inkscape:zoom="1.7581628"
     inkscape:cx="358.35661"
     inkscape:cy="258.22636"
     inkscape:document-units="px"
     inkscape:current-layer="layer1"
     inkscape:document-rotation="0"
     showgrid="true"
     units="px"
     inkscape:pagecheckerboard="true"
     inkscape:window-width="2560"
     inkscape:window-height="1361"
     inkscape:window-x="-9"
     inkscape:window-y="-9"
     inkscape:window-maximized="1"
     inkscape:snap-midpoints="false">
    <inkscape:grid
       type="xygrid"
       id="grid2749" />
  </sodipodi:namedview>
  <metadata
     id="metadata5">
    <rdf:RDF>
      <cc:Work
         rdf:about="">
        <dc:format>image/svg+xml</dc:format>
        <dc:type
           rdf:resource="http://purl.org/dc/dcmitype/StillImage" />
        <dc:title />
      </cc:Work>
    </rdf:RDF>
  </metadata>
  <g
     inkscape:label="Layer 1"
     inkscape:groupmode="layer"
     id="layer1">
    <circle
       id="path18"
       cx="66.145836"
       cy="66.145836"
       style="fill:url(#linearGradient1001);fill-opacity:1;stroke-width:0.1524;stroke-miterlimit:4;stroke-dasharray:none"
       r="63.5" />
    <path
       id="rect4706"
       style="fill:#ffffff;fill-opacity:1;stroke-width:1.2427;stroke-miterlimit:4;stroke-dasharray:none;filter:url(#filter4875)"
       d="M 300 109.91406 L 300 160 C 300 166.094 304.906 171 311 171 L 360 171 L 300 109.91406 z M 155 110 C 146.69 110 140 116.69 140 125 L 140 375 C 140 383.31001 146.69 390 155 390 L 345 390 C 353.31 390 360 383.31001 360 375 L 360 180 L 305 180 C 296.69 180 290 173.31 290 165 L 290 110 L 155 110 z M 170 200 L 330 200 C 335.54 200 340 204.46 340 210 C 340 215.54 335.54 220 330 220 L 170 220 C 164.46 220 160 215.54 160 210 C 160 204.46 164.46 200 170 200 z M 170 240 L 330 240 C 335.54 240 340 244.46 340 250 C 340 255.54 335.54 260 330 260 L 170 260 C 164.46 260 160 255.54 160 250 C 160 244.46 164.46 240 170 240 z M 170 280 L 330 280 C 335.54 280 340 284.46 340 290 C 340 295.54 335.54 300 330 300 L 170 300 C 164.46 300 160 295.54 160 290 C 160 284.46 164.46 280 170 280 z M 170 320 L 330 320 C 335.54 320 340 324.46 340 330 C 340 335.54 335.54 340 330 340 L 170 340 C 164.46 340 160 335.54 160 330 C 160 324.46 164.46 320 170 320 z "
       transform="scale(0.26458334)" />
  </g>
</svg>
