<?xml version="1.0" encoding="UTF-8" standalone="no"?>
<svg
   xmlns:dc="http://purl.org/dc/elements/1.1/"
   xmlns:cc="http://creativecommons.org/ns#"
   xmlns:rdf="http://www.w3.org/1999/02/22-rdf-syntax-ns#"
   xmlns:svg="http://www.w3.org/2000/svg"
   xmlns="http://www.w3.org/2000/svg"
   xmlns:xlink="http://www.w3.org/1999/xlink"
   xmlns:sodipodi="http://sodipodi.sourceforge.net/DTD/sodipodi-0.dtd"
   xmlns:inkscape="http://www.inkscape.org/namespaces/inkscape"
   width="500"
   height="500"
   viewBox="0 0 132.29167 132.29167"
   version="1.1"
   id="svg8"
   inkscape:version="1.0.1 (3bc2e813f5, 2020-09-07)"
   sodipodi:docname="Object.svg">
  <defs
     id="defs2">
    <linearGradient
       inkscape:collect="always"
       xlink:href="#linearGradient997"
       id="linearGradient1001-9"
       x1="66.53019"
       y1="129.67029"
       x2="66.53019"
       y2="2.8013468"
       gradientUnits="userSpaceOnUse"
       gradientTransform="translate(-4.5817578e-6)" />
    <linearGradient
       inkscape:collect="always"
       id="linearGradient997">
      <stop
         style="stop-color:#999900;stop-opacity:1"
         offset="0"
         id="stop993" />
      <stop
         style="stop-color:#e6e600;stop-opacity:1"
         offset="1"
         id="stop995" />
    </linearGradient>
    <filter
       style="color-interpolation-filters:sRGB;"
       inkscape:label="Drop Shadow"
       id="filter3933">
      <feFlood
         flood-opacity="0.501961"
         flood-color="rgb(0,0,0)"
         result="flood"
         id="feFlood3923" />
      <feComposite
         in="flood"
         in2="SourceGraphic"
         operator="in"
         result="composite1"
         id="feComposite3925" />
      <feGaussianBlur
         in="composite1"
         stdDeviation="30"
         result="blur"
         id="feGaussianBlur3927" />
      <feOffset
         dx="0"
         dy="0"
         result="offset"
         id="feOffset3929" />
      <feComposite
         in="SourceGraphic"
         in2="offset"
         operator="over"
         result="composite2"
         id="feComposite3931" />
    </filter>
  </defs>
  <sodipodi:namedview
     id="base"
     pagecolor="#ffffff"
     bordercolor="#666666"
     borderopacity="1.0"
     inkscape:pageopacity="0.0"
     inkscape:pageshadow="2"
     inkscape:zoom="1.2716537"
     inkscape:cx="23.941557"
     inkscape:cy="243.08931"
     inkscape:document-units="px"
     inkscape:current-layer="layer1"
     inkscape:document-rotation="0"
     showgrid="true"
     units="px"
     inkscape:pagecheckerboard="true"
     inkscape:window-width="2560"
     inkscape:window-height="1361"
     inkscape:window-x="-9"
     inkscape:window-y="-9"
     inkscape:window-maximized="1"
     inkscape:snap-midpoints="false"
     inkscape:snap-grids="true"
     showguides="true">
    <inkscape:grid
       type="xygrid"
       id="grid2749" />
  </sodipodi:namedview>
  <metadata
     id="metadata5">
    <rdf:RDF>
      <cc:Work
         rdf:about="">
        <dc:format>image/svg+xml</dc:format>
        <dc:type
           rdf:resource="http://purl.org/dc/dcmitype/StillImage" />
        <dc:title></dc:title>
      </cc:Work>
    </rdf:RDF>
  </metadata>
  <g
     inkscape:label="Layer 1"
     inkscape:groupmode="layer"
     id="layer1">
    <circle
       id="path18-6"
       cx="66.145836"
       cy="66.145836"
       style="fill:url(#linearGradient1001-9);fill-opacity:1;stroke-width:0.1524;stroke-miterlimit:4;stroke-dasharray:none"
       r="63.5" />
    <g
       id="g13144"
       transform="matrix(0.05846854,0,0,0.05846854,37.994598,51.57446)"
       style="fill:#ffffff">
      <g
         id="g13142"
         style="fill:#ffffff" />
    </g>
    <g
       id="g3806"
       transform="matrix(0.14994232,0,0,0.14994232,33.221744,31.829049)"
       style="fill:#ffffff;filter:url(#filter3933)">
      <path
         d="m 131.35,422.969 c 14.6,14.6 38.3,14.6 52.9,0 l 181.1,-181.1 c 5.2,-5.2 9.2,-11.4 11.8,-18 18.2,5.1 35.9,7.8 51.5,7.7 38.6,-0.2 51.4,-17.1 55.6,-27.2 4.2,-10 7.2,-31 -19.9,-58.6 -0.3,-0.3 -0.6,-0.6 -0.9,-0.9 -16.8,-16.8 -41.2,-32.3 -68.9,-43.8 -5.1,-2.1 -10.2,-4 -15.2,-5.8 v -0.3 c -0.3,-22.2 -18.2,-40.1 -40.4,-40.4 l -108.5,-1.5 c -14.4,-0.2 -28.2,5.4 -38.3,15.6 l -181.2,181.1 c -14.6,14.6 -14.6,38.3 0,52.9 z m 139.6,-305.1 c 12.1,-12.1 31.7,-12.1 43.8,0 7.2,7.2 10.1,17.1 8.7,26.4 11.9,8.4 26.1,16.2 41.3,22.5 5.4,2.2 10.6,4.2 15.6,5.9 l -0.6,-43.6 c 0.9,0.4 1.7,0.7 2.6,1.1 23.7,9.9 45,23.3 58.7,37 0.2,0.2 0.4,0.4 0.6,0.6 13,13.3 14.4,21.8 13.3,24.4 -3.4,8.1 -39.9,15.3 -95.3,-7.8 -16.2,-6.8 -31.4,-15.2 -43.7,-24.3 -0.4,0.5 -0.9,1 -1.3,1.5 -12.1,12.1 -31.7,12.1 -43.8,0 -12,-12 -12,-31.6 0.1,-43.7 z"
         id="path3804"
         style="fill:#ffffff" />
    </g>
  </g>
</svg>
