<?xml version="1.0" encoding="UTF-8" standalone="no"?>
<svg
   xmlns:dc="http://purl.org/dc/elements/1.1/"
   xmlns:cc="http://creativecommons.org/ns#"
   xmlns:rdf="http://www.w3.org/1999/02/22-rdf-syntax-ns#"
   xmlns:svg="http://www.w3.org/2000/svg"
   xmlns="http://www.w3.org/2000/svg"
   xmlns:sodipodi="http://sodipodi.sourceforge.net/DTD/sodipodi-0.dtd"
   xmlns:inkscape="http://www.inkscape.org/namespaces/inkscape"
   version="1.1"
   id="Layer_1"
   x="0px"
   y="0px"
   viewBox="0 0 442.688 442.688"
   style="enable-background:new 0 0 442.688 442.688;"
   xml:space="preserve"
   sodipodi:docname="ObjectTag.svg"
   inkscape:version="1.0.1 (3bc2e813f5, 2020-09-07)"><metadata
   id="metadata43"><rdf:RDF><cc:Work
       rdf:about=""><dc:format>image/svg+xml</dc:format><dc:type
         rdf:resource="http://purl.org/dc/dcmitype/StillImage" /></cc:Work></rdf:RDF></metadata><defs
   id="defs41" /><sodipodi:namedview
   pagecolor="#ffffff"
   bordercolor="#666666"
   borderopacity="1"
   objecttolerance="10"
   gridtolerance="10"
   guidetolerance="10"
   inkscape:pageopacity="0"
   inkscape:pageshadow="2"
   inkscape:window-width="2560"
   inkscape:window-height="1361"
   id="namedview39"
   showgrid="false"
   inkscape:zoom="0.76088389"
   inkscape:cx="-277.82102"
   inkscape:cy="378.00855"
   inkscape:window-x="-9"
   inkscape:window-y="-9"
   inkscape:window-maximized="1"
   inkscape:current-layer="g5847"
   inkscape:document-rotation="0" />

<g
   id="g8">
</g>
<g
   id="g10">
</g>
<g
   id="g12">
</g>
<g
   id="g14">
</g>
<g
   id="g16">
</g>
<g
   id="g18">
</g>
<g
   id="g20">
</g>
<g
   id="g22">
</g>
<g
   id="g24">
</g>
<g
   id="g26">
</g>
<g
   id="g28">
</g>
<g
   id="g30">
</g>
<g
   id="g32">
</g>
<g
   id="g34">
</g>
<g
   id="g36">
</g>
<g
   id="g5847"
   style="fill:#c2c200;fill-opacity:1;stroke:#000000;stroke-width:10;stroke-miterlimit:4;stroke-dasharray:none;stroke-opacity:1"
   transform="matrix(0.93560274,0,0,0.95128664,21.00262,8.8327091)"><g
     id="g6"
     transform="matrix(0.85434431,0,0,0.85434431,3.9443851,67.108546)"
     style="fill:#e6e600;fill-opacity:1;stroke:#000000;stroke-width:11.7049;stroke-miterlimit:4;stroke-dasharray:none;stroke-opacity:1">
	<g
   id="g4"
   style="fill:#e6e600;fill-opacity:1;stroke:#000000;stroke-width:11.7049;stroke-miterlimit:4;stroke-dasharray:none;stroke-opacity:1">
		<path
   d="M 442.666,178.822 438.662,33.744 C 438.215,17.522 425.158,4.465 408.935,4.016 L 263.855,0.012 c -8.475,-0.237 -16.493,2.97 -22.468,8.945 L 8.954,241.391 c -11.924,11.924 -11.924,31.325 0,43.249 l 149.083,149.082 c 11.951,11.953 31.296,11.956 43.25,0.001 L 433.721,201.29 c 5.915,-5.916 9.176,-14.106 8.945,-22.468 z m -66.428,-38.843 c -20.323,20.322 -53.215,20.324 -73.539,0 -20.275,-20.275 -20.275,-53.265 0,-73.539 20.323,-20.323 53.215,-20.324 73.539,0 20.274,20.274 20.274,53.264 0,73.539 z"
   id="path2"
   style="fill:#e6e600;fill-opacity:1;stroke:#000000;stroke-width:11.7049;stroke-miterlimit:4;stroke-dasharray:none;stroke-opacity:1" />
	</g>
</g><path
     id="rect45"
     style="fill:#000000;fill-opacity:1;stroke:none;stroke-width:9.99987176;stroke-miterlimit:4;stroke-dasharray:none;stroke-opacity:1"
     d="M 439.89289,22.930679 324.11878,144.10908 c -5.58512,5.84583 -14.38638,6.04615 -19.73377,0.44914 -5.34739,-5.59701 -5.15601,-14.80911 0.42911,-20.65494 L 420.58822,2.7248807 c 5.58512,-5.8458292 14.38639,-6.0461529 19.73378,-0.4491456 5.34739,5.5970074 5.156,14.8091149 -0.42911,20.6549439 z" /><text
     xml:space="preserve"
     style="font-size:116.987px;line-height:1.25;font-family:sans-serif;letter-spacing:0px;word-spacing:0px;stroke-width:15.6679"
     x="-176.05247"
     y="352.68771"
     id="text5851"
     transform="matrix(0.71300891,-0.7012535,0.71300892,0.70125351,0,0)"><tspan
       sodipodi:role="line"
       id="tspan5849"
       x="-176.05247"
       y="352.68771"
       style="font-style:normal;font-variant:normal;font-weight:bold;font-stretch:normal;font-family:Arial;-inkscape-font-specification:'Arial Bold';fill:#000000;fill-opacity:1;stroke:none;stroke-width:15.6679">Obj</tspan></text></g></svg>
