<?xml version="1.0" encoding="UTF-8" standalone="no"?>
<svg
   xmlns:dc="http://purl.org/dc/elements/1.1/"
   xmlns:cc="http://creativecommons.org/ns#"
   xmlns:rdf="http://www.w3.org/1999/02/22-rdf-syntax-ns#"
   xmlns:svg="http://www.w3.org/2000/svg"
   xmlns="http://www.w3.org/2000/svg"
   xmlns:xlink="http://www.w3.org/1999/xlink"
   xmlns:sodipodi="http://sodipodi.sourceforge.net/DTD/sodipodi-0.dtd"
   xmlns:inkscape="http://www.inkscape.org/namespaces/inkscape"
   width="500"
   height="500"
   viewBox="0 0 132.29167 132.29167"
   version="1.1"
   id="svg8"
   inkscape:version="1.0.1 (3bc2e813f5, 2020-09-07)"
   sodipodi:docname="ParallelCommandList.svg">
  <defs
     id="defs2">
    <linearGradient
       inkscape:collect="always"
       xlink:href="#linearGradient997"
       id="linearGradient1001"
       x1="66.53019"
       y1="129.67029"
       x2="66.53019"
       y2="2.8013468"
       gradientUnits="userSpaceOnUse"
       gradientTransform="translate(1.0457031e-6)" />
    <linearGradient
       inkscape:collect="always"
       id="linearGradient997">
      <stop
         style="stop-color:#008000;stop-opacity:1"
         offset="0"
         id="stop993" />
      <stop
         style="stop-color:#00e200;stop-opacity:1"
         offset="1"
         id="stop995" />
    </linearGradient>
    <filter
       style="color-interpolation-filters:sRGB;"
       inkscape:label="Drop Shadow"
       id="filter4875">
      <feFlood
         flood-opacity="0.501961"
         flood-color="rgb(0,0,0)"
         result="flood"
         id="feFlood4865" />
      <feComposite
         in="flood"
         in2="SourceGraphic"
         operator="in"
         result="composite1"
         id="feComposite4867" />
      <feGaussianBlur
         in="composite1"
         stdDeviation="10"
         result="blur"
         id="feGaussianBlur4869" />
      <feOffset
         dx="0"
         dy="0"
         result="offset"
         id="feOffset4871" />
      <feComposite
         in="SourceGraphic"
         in2="offset"
         operator="over"
         result="composite2"
         id="feComposite4873" />
    </filter>
    <filter
       style="color-interpolation-filters:sRGB;"
       inkscape:label="Drop Shadow"
       id="filter7226">
      <feFlood
         flood-opacity="0.501961"
         flood-color="rgb(0,0,0)"
         result="flood"
         id="feFlood7216" />
      <feComposite
         in="flood"
         in2="SourceGraphic"
         operator="in"
         result="composite1"
         id="feComposite7218" />
      <feGaussianBlur
         in="composite1"
         stdDeviation="10"
         result="blur"
         id="feGaussianBlur7220" />
      <feOffset
         dx="0"
         dy="0"
         result="offset"
         id="feOffset7222" />
      <feComposite
         in="SourceGraphic"
         in2="offset"
         operator="over"
         result="composite2"
         id="feComposite7224" />
    </filter>
    <filter
       style="color-interpolation-filters:sRGB;"
       inkscape:label="Drop Shadow"
       id="filter7238">
      <feFlood
         flood-opacity="0.501961"
         flood-color="rgb(0,0,0)"
         result="flood"
         id="feFlood7228" />
      <feComposite
         in="flood"
         in2="SourceGraphic"
         operator="in"
         result="composite1"
         id="feComposite7230" />
      <feGaussianBlur
         in="composite1"
         stdDeviation="10"
         result="blur"
         id="feGaussianBlur7232" />
      <feOffset
         dx="0"
         dy="0"
         result="offset"
         id="feOffset7234" />
      <feComposite
         in="SourceGraphic"
         in2="offset"
         operator="over"
         result="composite2"
         id="feComposite7236" />
    </filter>
  </defs>
  <sodipodi:namedview
     id="base"
     pagecolor="#ffffff"
     bordercolor="#666666"
     borderopacity="1.0"
     inkscape:pageopacity="0.0"
     inkscape:pageshadow="2"
     inkscape:zoom="1.3485169"
     inkscape:cx="158.24131"
     inkscape:cy="282.45923"
     inkscape:document-units="px"
     inkscape:current-layer="layer1"
     inkscape:document-rotation="0"
     showgrid="true"
     units="px"
     inkscape:pagecheckerboard="true"
     inkscape:window-width="2560"
     inkscape:window-height="1361"
     inkscape:window-x="-9"
     inkscape:window-y="-9"
     inkscape:window-maximized="1"
     inkscape:snap-midpoints="false"
     inkscape:snap-grids="true">
    <inkscape:grid
       type="xygrid"
       id="grid2749" />
  </sodipodi:namedview>
  <metadata
     id="metadata5">
    <rdf:RDF>
      <cc:Work
         rdf:about="">
        <dc:format>image/svg+xml</dc:format>
        <dc:type
           rdf:resource="http://purl.org/dc/dcmitype/StillImage" />
        <dc:title></dc:title>
      </cc:Work>
    </rdf:RDF>
  </metadata>
  <g
     inkscape:label="Layer 1"
     inkscape:groupmode="layer"
     id="layer1">
    <circle
       id="path18"
       cx="66.145836"
       cy="66.145836"
       style="fill:url(#linearGradient1001);fill-opacity:1;stroke-width:0.1524;stroke-miterlimit:4;stroke-dasharray:none"
       r="63.5" />
    <path
       id="rect7098-3"
       style="fill:#b3b3b3;fill-opacity:1;stroke-width:1.297;stroke-miterlimit:4;stroke-dasharray:none;filter:url(#filter7238)"
       d="M 140.87695 118.9707 C 131.83656 118.9707 124.55859 126.24867 124.55859 135.28906 L 124.55859 384.68164 C 124.55859 393.72204 131.83656 401 140.87695 401 L 331.68164 401 C 340.72203 401 348 393.72204 348 384.68164 L 348 185 L 285 185 L 285 118.9707 L 140.87695 118.9707 z "
       transform="scale(0.26458334)" />
    <path
       id="rect7098"
       style="fill:#e6e6e6;fill-opacity:1;stroke-width:1.297;stroke-miterlimit:4;stroke-dasharray:none;filter:url(#filter7226)"
       d="M 161.31836 98.970703 C 152.27797 98.970703 145 106.24867 145 115.28906 L 145 364.68164 C 145 373.72203 152.27797 381 161.31836 381 L 352.12305 381 C 361.16344 381 368.44141 373.72203 368.44141 364.68164 L 368.44141 190 L 285 190 L 285 98.970703 L 161.31836 98.970703 z "
       transform="scale(0.26458334)" />
    <path
       id="rect4706"
       style="fill:#ffffff;fill-opacity:1;stroke-width:1.2427;stroke-miterlimit:4;stroke-dasharray:none;filter:url(#filter4875)"
       d="M 300,109.91406 V 160 c 0,6.094 4.906,11 11,11 h 49 z M 155,110 c -8.31,0 -15,6.69 -15,15 v 250 c 0,8.31001 6.69,15 15,15 h 190 c 8.31,0 15,-6.68999 15,-15 V 180 h -55 c -8.31,0 -15,-6.69 -15,-15 v -55 z"
       transform="matrix(0.26458334,0,0,0.26458334,7.1428967,-8.0547559)" />
    <g
       id="g7002"
       transform="matrix(0.07884489,0,0,0.07884489,54.047945,41.275207)"
       style="fill:#008200;fill-opacity:1">
      <g
         id="g7000"
         style="fill:#008200;fill-opacity:1">
        <path
           d="m 449.733,119.163 -197.9,-117.5 c -3.7,-2.2 -8.3,-2.2 -12,-0.1 L 37.654269,111.53178 c -3.737336,2.03281 -7.413259,8.80663 -7.413259,13.10663 L 30.333,354.563 c -0.1,4.3 2.2,8.2 5.8,10.4 l 198.9,119.3 c 1.9,1.1 4,1.7 6.2,1.7 2,0 4,-0.5 5.9,-1.5 l 200.7,-112.6 c 3.8,-2.1 6.1,-6.1 6.1,-10.4 l 1.7,-231.9 c 0,-4.3 -2.2,-8.3 -5.9,-10.4 z m -218.8,334.7 -176.6,-105.9 L 55.078854,144.40885 230.933,248.963 Z m 12.2,-225.6 L 66.60344,124.56134 245.533,25.863 l 174.4,103.5 z m 186.8,126 -175,98.2 v -203.4 l 176.5,-98.7 z"
           id="path6974"
           style="fill:#008200;fill-opacity:1"
           sodipodi:nodetypes="cccsccccscccccccccccccccccccc" />
        <path
           d="m 162.633,299.063 c 2,0 4,-0.5 5.9,-1.5 5.8,-3.3 7.8,-10.6 4.6,-16.3 -3.2,-5.8 -10.5,-7.8 -16.3,-4.6 -5.8,3.2 -7.8,10.5 -4.6,16.3 2.2,3.9 6.2,6.1 10.4,6.1 z"
           id="path6976"
           style="fill:#008200;fill-opacity:1" />
        <path
           d="m 122.533,321.663 c 2,0 4,-0.5 5.9,-1.5 5.8,-3.2 7.8,-10.6 4.6,-16.3 -3.2,-5.8 -10.6,-7.8 -16.3,-4.6 -5.8,3.2 -7.8,10.6 -4.6,16.3 2.1,3.9 6.2,6.1 10.4,6.1 z"
           id="path6978"
           style="fill:#008200;fill-opacity:1" />
        <path
           d="m 202.833,276.563 c 2,0 4,-0.5 5.9,-1.5 5.8,-3.2 7.8,-10.6 4.6,-16.3 -3.2,-5.8 -10.6,-7.8 -16.3,-4.6 -5.8,3.2 -7.8,10.6 -4.6,16.3 2.1,3.9 6.2,6.1 10.4,6.1 z"
           id="path6980"
           style="fill:#008200;fill-opacity:1" />
        <path
           d="m 82.433,344.163 c 2,0 4,-0.5 5.9,-1.5 5.8,-3.3 7.8,-10.6 4.6,-16.3 -3.3,-5.8 -10.6,-7.8 -16.3,-4.6 -5.8,3.2 -7.8,10.6 -4.6,16.3 2.1,3.9 6.2,6.1 10.4,6.1 z"
           id="path6982"
           style="fill:#008200;fill-opacity:1" />
        <path
           d="m 355.533,322.863 c 1.9,1.1 4,1.7 6.1,1.7 4.1,0 8.1,-2.1 10.3,-5.9 3.4,-5.7 1.5,-13.1 -4.2,-16.4 -5.7,-3.4 -13.1,-1.5 -16.5,4.2 -3.3,5.7 -1.4,13 4.3,16.4 z"
           id="path6984"
           style="fill:#008200;fill-opacity:1" />
        <path
           d="m 315.933,299.363 c 1.9,1.1 4,1.7 6.1,1.7 4.1,0 8.1,-2.1 10.3,-5.9 3.4,-5.7 1.5,-13.1 -4.2,-16.4 -5.7,-3.4 -13.1,-1.5 -16.4,4.2 -3.3,5.7 -1.5,13 4.2,16.4 z"
           id="path6986"
           style="fill:#008200;fill-opacity:1" />
        <path
           d="m 276.433,275.863 c 1.9,1.1 4,1.7 6.1,1.7 4.1,0 8.1,-2.1 10.3,-5.9 3.4,-5.7 1.5,-13.1 -4.2,-16.4 -5.7,-3.4 -13.1,-1.5 -16.4,4.2 -3.4,5.7 -1.5,13 4.2,16.4 z"
           id="path6988"
           style="fill:#008200;fill-opacity:1" />
        <path
           d="m 395.133,346.363 c 1.9,1.1 4,1.7 6.1,1.7 4.1,0 8.1,-2.1 10.3,-5.9 3.4,-5.7 1.5,-13.1 -4.2,-16.5 -5.7,-3.4 -13.1,-1.5 -16.4,4.2 -3.4,5.7 -1.5,13.1 4.2,16.5 z"
           id="path6990"
           style="fill:#008200;fill-opacity:1" />
        <path
           d="m 244.233,138.063 c -6.6,-0.1 -12.1,5.2 -12.1,11.9 -0.1,6.6 5.2,12.1 11.8,12.1 0,0 0.1,0 0.2,0 6.6,0 11.9,-5.3 12,-11.9 0,-6.6 -5.3,-12.1 -11.9,-12.1 z"
           id="path6992"
           style="fill:#008200;fill-opacity:1" />
        <path
           d="m 244.733,91.963 c -6.6,-0.1 -12.1,5.2 -12.1,11.8 -0.1,6.6 5.2,12.1 11.9,12.2 h 0.1 c 6.6,0 11.9,-5.3 12,-11.9 0.1,-6.5 -5.2,-12 -11.9,-12.1 z"
           id="path6994"
           style="fill:#008200;fill-opacity:1" />
        <path
           d="m 245.033,69.963 c 0,0 0.1,0 0.2,0 6.6,0 11.9,-5.3 12,-11.9 0.1,-6.6 -5.2,-12.1 -11.9,-12.1 -6.6,-0.1 -12.1,5.2 -12.1,11.8 -0.1,6.7 5.2,12.1 11.8,12.2 z"
           id="path6996"
           style="fill:#008200;fill-opacity:1" />
        <path
           d="m 243.633,184.063 c -6.6,-0.1 -12.1,5.2 -12.1,11.8 -0.1,6.6 5.2,12.1 11.9,12.2 h 0.1 c 6.6,0 11.9,-5.3 12,-11.9 0,-6.6 -5.3,-12 -11.9,-12.1 z"
           id="path6998"
           style="fill:#008200;fill-opacity:1" />
      </g>
    </g>
  </g>
</svg>
