<?xml version="1.0" encoding="UTF-8" standalone="no"?>
<svg
   xmlns:dc="http://purl.org/dc/elements/1.1/"
   xmlns:cc="http://creativecommons.org/ns#"
   xmlns:rdf="http://www.w3.org/1999/02/22-rdf-syntax-ns#"
   xmlns:svg="http://www.w3.org/2000/svg"
   xmlns="http://www.w3.org/2000/svg"
   xmlns:xlink="http://www.w3.org/1999/xlink"
   xmlns:sodipodi="http://sodipodi.sourceforge.net/DTD/sodipodi-0.dtd"
   xmlns:inkscape="http://www.inkscape.org/namespaces/inkscape"
   width="500"
   height="500"
   viewBox="0 0 132.29167 132.29167"
   version="1.1"
   id="svg8"
   inkscape:version="1.0.1 (3bc2e813f5, 2020-09-07)"
   sodipodi:docname="Program.svg">
  <defs
     id="defs2">
    <linearGradient
       inkscape:collect="always"
       xlink:href="#linearGradient997"
       id="linearGradient1001"
       x1="66.53019"
       y1="129.67029"
       x2="66.53019"
       y2="2.8013468"
       gradientUnits="userSpaceOnUse"
       gradientTransform="translate(1.0457031e-6)" />
    <linearGradient
       inkscape:collect="always"
       id="linearGradient997">
      <stop
         style="stop-color:#9e0000;stop-opacity:1"
         offset="0"
         id="stop993" />
      <stop
         style="stop-color:#ff4d4d;stop-opacity:1"
         offset="1"
         id="stop995" />
    </linearGradient>
    <filter
       style="color-interpolation-filters:sRGB;"
       inkscape:label="Drop Shadow"
       id="filter12728">
      <feFlood
         flood-opacity="0.501961"
         flood-color="rgb(0,0,0)"
         result="flood"
         id="feFlood12718" />
      <feComposite
         in="flood"
         in2="SourceGraphic"
         operator="in"
         result="composite1"
         id="feComposite12720" />
      <feGaussianBlur
         in="composite1"
         stdDeviation="15"
         result="blur"
         id="feGaussianBlur12722" />
      <feOffset
         dx="0"
         dy="0"
         result="offset"
         id="feOffset12724" />
      <feComposite
         in="SourceGraphic"
         in2="offset"
         operator="over"
         result="composite2"
         id="feComposite12726" />
    </filter>
  </defs>
  <sodipodi:namedview
     id="base"
     pagecolor="#ffffff"
     bordercolor="#666666"
     borderopacity="1.0"
     inkscape:pageopacity="0.0"
     inkscape:pageshadow="2"
     inkscape:zoom="0.95781839"
     inkscape:cx="475.13266"
     inkscape:cy="105.75781"
     inkscape:document-units="px"
     inkscape:current-layer="layer1"
     inkscape:document-rotation="0"
     showgrid="true"
     units="px"
     inkscape:pagecheckerboard="true"
     inkscape:window-width="2560"
     inkscape:window-height="1361"
     inkscape:window-x="-9"
     inkscape:window-y="-9"
     inkscape:window-maximized="1"
     inkscape:snap-midpoints="false"
     inkscape:snap-grids="true"
     showguides="true">
    <inkscape:grid
       type="xygrid"
       id="grid2749" />
  </sodipodi:namedview>
  <metadata
     id="metadata5">
    <rdf:RDF>
      <cc:Work
         rdf:about="">
        <dc:format>image/svg+xml</dc:format>
        <dc:type
           rdf:resource="http://purl.org/dc/dcmitype/StillImage" />
        <dc:title></dc:title>
      </cc:Work>
    </rdf:RDF>
  </metadata>
  <g
     inkscape:label="Layer 1"
     inkscape:groupmode="layer"
     id="layer1">
    <circle
       id="path18"
       cx="66.145836"
       cy="66.145836"
       style="fill:url(#linearGradient1001);fill-opacity:1;stroke-width:0.1524;stroke-miterlimit:4;stroke-dasharray:none"
       r="63.5" />
    <g
       id="g12628"
       transform="matrix(0.1939593,0,0,0.1939593,26.628089,26.827251)"
       style="fill:#ffffff;filter:url(#filter12728)">
      <g
         id="g12626"
         style="fill:#ffffff">
        <path
           d="M 363.061,50.904 C 346.009,25.037 318.861,8.894 282.371,2.924 270.513,0.985 258.701,0 247.261,0 187.198,0 134.355,26.518 94.447,76.686 68.535,109.26 49.537,150.192 39.509,195.057 29.928,237.92 29.405,282.12 38.034,319.516 l 0.068,0.285 c 7.519,30.072 34.704,72.422 71.603,72.422 11.282,0 28.049,-4.225 43.876,-24.332 6.559,-8.203 11.931,-16.471 16.672,-23.766 12.632,-19.436 18.416,-26.779 29.127,-26.779 2.522,0 5.394,0.387 8.565,1.148 8.888,-26.43 17.542,-51.732 20.466,-58.869 2.947,-7.197 8.42,-17.166 16.255,-29.627 -0.605,-1.576 -1.156,-3.18 -1.608,-4.822 -3.976,-14.438 -2.146,-31.67 5.291,-49.83 7.28,-17.773 18.703,-32.693 33.033,-43.152 12.951,-9.451 27.58,-14.744 41.19,-14.906 h 0.208 c 2.38,0 4.7,0.455 6.899,1.357 3.811,1.559 7.007,4.4 9.006,7.998 3.247,5.824 3.037,12.961 -0.557,18.604 -2.049,3.223 -1.73,5.375 2.444,16.436 4.753,12.588 11.261,29.826 3.183,51.977 -9.528,26.123 -24.521,37.445 -35.494,42.348 -3.169,14.441 -6.261,25.398 -9.192,32.559 -0.872,2.129 -2.524,5.787 -4.733,10.529 13.363,-10.164 26.267,-23.42 38.113,-39.41 27.22,-36.742 45.494,-83.537 48.884,-125.18 2.647,-32.547 -3.67,-61.455 -18.272,-83.602 z M 102.218,244.771 c -16.567,0 -29.998,-13.432 -29.998,-29.998 0,-16.567 13.431,-30 29.998,-30 16.568,0 29.999,13.432 29.999,30 0,16.567 -13.43,29.998 -29.999,29.998 z m 33.332,-79.997 c -16.567,0 -29.998,-13.43 -29.998,-29.998 0,-16.568 13.431,-29.998 29.998,-29.998 16.568,0 29.999,13.43 29.999,29.998 0,16.568 -13.43,29.998 -29.999,29.998 z m 59.997,-59.997 c -16.567,0 -29.998,-13.432 -29.998,-29.998 0,-16.568 13.431,-30 29.998,-30 16.567,0 29.999,13.432 29.999,30 0,16.567 -13.431,29.998 -29.999,29.998 z m 92.705,-6.503 c -16.566,0 -29.997,-13.43 -29.997,-29.998 0,-16.568 13.431,-29.998 29.997,-29.998 16.569,0 30,13.43 30,29.998 0,16.568 -13.43,29.998 -30,29.998 z"
           id="path12620"
           style="fill:#ffffff" />
        <path
           d="m 324.867,133.924 c -0.357,-0.643 -0.919,-1.129 -1.577,-1.398 -0.389,-0.16 -0.812,-0.242 -1.245,-0.238 -19.627,0.232 -46.938,15.584 -60.522,48.744 -6.168,15.061 -7.797,28.951 -4.708,40.166 0.806,2.927 1.934,5.64 3.338,8.119 l 35.878,14.896 c 1.779,-0.468 3.544,-1.076 5.276,-1.84 8.324,-3.681 19.879,-12.541 27.652,-33.854 6.171,-16.92 1.233,-29.998 -3.123,-41.539 -4.164,-11.029 -7.453,-19.742 -1.063,-29.791 0.628,-0.99 0.664,-2.242 0.094,-3.265 z m -5.582,69.375 c -0.033,0.648 -1.007,16.012 -17.269,26.248 -0.3,0.188 -0.613,0.352 -0.936,0.486 -2.887,1.209 -6.193,0.164 -7.861,-2.486 -0.906,-1.441 -1.198,-3.15 -0.82,-4.812 0.378,-1.66 1.381,-3.076 2.821,-3.984 10.514,-6.615 11.297,-15.762 11.326,-16.148 0.121,-2.393 1.656,-4.574 3.904,-5.516 0.197,-0.084 0.401,-0.156 0.609,-0.221 0.705,-0.213 1.438,-0.303 2.181,-0.266 3.514,0.181 6.225,3.187 6.045,6.699 z"
           id="path12622"
           style="fill:#ffffff" />
        <path
           d="m 241.585,265.311 c -6.348,15.496 -42.263,124.465 -43.788,129.099 -2.431,7.379 1.259,15.383 8.449,18.328 7.189,2.944 15.435,-0.173 18.878,-7.138 2.165,-4.379 53.083,-107.402 59.355,-122.719 3.137,-7.658 6.188,-19.807 8.596,-30.863 l -35.88,-14.895 c -6.047,9.574 -12.429,20.422 -15.61,28.188 z"
           id="path12624"
           style="fill:#ffffff" />
      </g>
    </g>
  </g>
</svg>
