<?xml version="1.0" encoding="UTF-8" standalone="no"?>
<svg
   xmlns:dc="http://purl.org/dc/elements/1.1/"
   xmlns:cc="http://creativecommons.org/ns#"
   xmlns:rdf="http://www.w3.org/1999/02/22-rdf-syntax-ns#"
   xmlns:svg="http://www.w3.org/2000/svg"
   xmlns="http://www.w3.org/2000/svg"
   xmlns:xlink="http://www.w3.org/1999/xlink"
   xmlns:sodipodi="http://sodipodi.sourceforge.net/DTD/sodipodi-0.dtd"
   xmlns:inkscape="http://www.inkscape.org/namespaces/inkscape"
   width="500"
   height="500"
   viewBox="0 0 132.29167 132.29167"
   version="1.1"
   id="svg8"
   inkscape:version="1.0.1 (3bc2e813f5, 2020-09-07)"
   sodipodi:docname="RenderState.svg">
  <defs
     id="defs2">
    <linearGradient
       inkscape:collect="always"
       xlink:href="#linearGradient997"
       id="linearGradient1001"
       x1="66.53019"
       y1="129.67029"
       x2="66.53019"
       y2="2.8013468"
       gradientUnits="userSpaceOnUse"
       gradientTransform="translate(1.0457031e-6)" />
    <linearGradient
       inkscape:collect="always"
       id="linearGradient997">
      <stop
         style="stop-color:#6b00a2;stop-opacity:1"
         offset="0"
         id="stop993" />
      <stop
         style="stop-color:#cd6aff;stop-opacity:1"
         offset="1"
         id="stop995" />
    </linearGradient>
    <filter
       style="color-interpolation-filters:sRGB;"
       inkscape:label="Drop Shadow"
       id="filter12571">
      <feFlood
         flood-opacity="0.501961"
         flood-color="rgb(0,0,0)"
         result="flood"
         id="feFlood12561" />
      <feComposite
         in="flood"
         in2="SourceGraphic"
         operator="in"
         result="composite1"
         id="feComposite12563" />
      <feGaussianBlur
         in="composite1"
         stdDeviation="4"
         result="blur"
         id="feGaussianBlur12565" />
      <feOffset
         dx="0"
         dy="0"
         result="offset"
         id="feOffset12567" />
      <feComposite
         in="SourceGraphic"
         in2="offset"
         operator="over"
         result="composite2"
         id="feComposite12569" />
    </filter>
  </defs>
  <sodipodi:namedview
     id="base"
     pagecolor="#ffffff"
     bordercolor="#666666"
     borderopacity="1.0"
     inkscape:pageopacity="0.0"
     inkscape:pageshadow="2"
     inkscape:zoom="1.8923245"
     inkscape:cx="439.73892"
     inkscape:cy="274.33244"
     inkscape:document-units="px"
     inkscape:current-layer="layer1"
     inkscape:document-rotation="0"
     showgrid="true"
     units="px"
     inkscape:pagecheckerboard="true"
     inkscape:window-width="2560"
     inkscape:window-height="1361"
     inkscape:window-x="-9"
     inkscape:window-y="-9"
     inkscape:window-maximized="1"
     inkscape:snap-midpoints="false"
     inkscape:snap-grids="true"
     showguides="true">
    <inkscape:grid
       type="xygrid"
       id="grid2749" />
  </sodipodi:namedview>
  <metadata
     id="metadata5">
    <rdf:RDF>
      <cc:Work
         rdf:about="">
        <dc:format>image/svg+xml</dc:format>
        <dc:type
           rdf:resource="http://purl.org/dc/dcmitype/StillImage" />
        <dc:title></dc:title>
      </cc:Work>
    </rdf:RDF>
  </metadata>
  <g
     inkscape:label="Layer 1"
     inkscape:groupmode="layer"
     id="layer1">
    <circle
       id="path18"
       cx="66.145836"
       cy="66.145836"
       style="fill:url(#linearGradient1001);fill-opacity:1;stroke-width:0.1524;stroke-miterlimit:4;stroke-dasharray:none"
       r="63.5" />
    <path
       id="rect12439"
       style="fill:#ffffff;fill-opacity:1;stroke-width:0.304184;filter:url(#filter12571)"
       d="m 60.765287,40.86469 a 7.5284811,7.5284811 0 0 0 -6.70967,4.114478 H 33.987074 c -2.581714,0 -4.66018,1.633302 -4.66018,3.661791 0,2.028489 2.078466,3.661275 4.66018,3.661275 H 54.33157 a 7.5284811,7.5284811 0 0 0 6.433717,3.619418 7.5284811,7.5284811 0 0 0 6.43423,-3.619418 H 99.22909 c 2.58172,0 4.66018,-1.632786 4.66018,-3.661275 0,-2.028489 -2.07846,-3.661791 -4.66018,-3.661791 H 67.474954 A 7.5284811,7.5284811 0 0 0 60.765287,40.86469 Z M 88.39409,59.901255 a 7.5284811,7.5284811 0 0 0 -6.759276,4.213181 H 33.508033 c -2.581712,0 -4.660181,1.633302 -4.660181,3.661791 0,2.028489 2.078469,3.661275 4.660181,3.661275 h 48.512802 a 7.5284811,7.5284811 0 0 0 6.373255,3.520715 7.5284811,7.5284811 0 0 0 6.372738,-3.520715 h 3.98322 c 2.581712,0 4.660182,-1.632786 4.660182,-3.661275 0,-2.028489 -2.07847,-3.661791 -4.660182,-3.661791 H 95.152853 A 7.5284811,7.5284811 0 0 0 88.39409,59.901255 Z M 44.132707,78.700624 a 7.5284811,7.5284811 0 0 0 -6.614583,3.934645 h -4.010091 c -2.581712,0 -4.660181,1.632786 -4.660181,3.661276 0,2.028489 2.078469,3.661791 4.660181,3.661791 h 4.085024 a 7.5284811,7.5284811 0 0 0 6.53965,3.799252 7.5284811,7.5284811 0 0 0 6.54017,-3.799252 h 48.077171 c 2.581712,0 4.660182,-1.633302 4.660182,-3.661791 0,-2.02849 -2.07847,-3.661276 -4.660182,-3.661276 H 50.748326 a 7.5284811,7.5284811 0 0 0 -6.615619,-3.934645 z" />
  </g>
</svg>
