<?xml version="1.0" encoding="UTF-8" standalone="no"?>
<svg
   xmlns:dc="http://purl.org/dc/elements/1.1/"
   xmlns:cc="http://creativecommons.org/ns#"
   xmlns:rdf="http://www.w3.org/1999/02/22-rdf-syntax-ns#"
   xmlns:svg="http://www.w3.org/2000/svg"
   xmlns="http://www.w3.org/2000/svg"
   xmlns:xlink="http://www.w3.org/1999/xlink"
   xmlns:sodipodi="http://sodipodi.sourceforge.net/DTD/sodipodi-0.dtd"
   xmlns:inkscape="http://www.inkscape.org/namespaces/inkscape"
   width="500"
   height="500"
   viewBox="0 0 132.29167 132.29167"
   version="1.1"
   id="svg8"
   inkscape:version="1.0.1 (3bc2e813f5, 2020-09-07)"
   sodipodi:docname="Resource.svg">
  <defs
     id="defs2">
    <filter
       style="color-interpolation-filters:sRGB;"
       inkscape:label="Drop Shadow"
       id="filter1915">
      <feFlood
         flood-opacity="0.501961"
         flood-color="rgb(0,0,0)"
         result="flood"
         id="feFlood1905" />
      <feComposite
         in="flood"
         in2="SourceGraphic"
         operator="in"
         result="composite1"
         id="feComposite1907" />
      <feGaussianBlur
         in="composite1"
         stdDeviation="4"
         result="blur"
         id="feGaussianBlur1909" />
      <feOffset
         dx="0"
         dy="0"
         result="offset"
         id="feOffset1911" />
      <feComposite
         in="SourceGraphic"
         in2="offset"
         operator="over"
         result="composite2"
         id="feComposite1913" />
    </filter>
    <linearGradient
       inkscape:collect="always"
       xlink:href="#linearGradient997"
       id="linearGradient1001-9"
       x1="66.53019"
       y1="129.67029"
       x2="66.53019"
       y2="2.8013468"
       gradientUnits="userSpaceOnUse"
       gradientTransform="translate(-4.5817578e-6)" />
    <linearGradient
       inkscape:collect="always"
       id="linearGradient997">
      <stop
         style="stop-color:#006464;stop-opacity:1"
         offset="0"
         id="stop993" />
      <stop
         style="stop-color:#00e0e0;stop-opacity:1"
         offset="1"
         id="stop995" />
    </linearGradient>
  </defs>
  <sodipodi:namedview
     id="base"
     pagecolor="#ffffff"
     bordercolor="#666666"
     borderopacity="1.0"
     inkscape:pageopacity="0.0"
     inkscape:pageshadow="2"
     inkscape:zoom="1.2233521"
     inkscape:cx="280.03385"
     inkscape:cy="212.15871"
     inkscape:document-units="px"
     inkscape:current-layer="layer1"
     inkscape:document-rotation="0"
     showgrid="true"
     units="px"
     inkscape:pagecheckerboard="true"
     inkscape:window-width="2560"
     inkscape:window-height="1361"
     inkscape:window-x="-9"
     inkscape:window-y="-9"
     inkscape:window-maximized="1"
     inkscape:snap-midpoints="false"
     inkscape:snap-grids="true"
     showguides="true">
    <inkscape:grid
       type="xygrid"
       id="grid2749" />
  </sodipodi:namedview>
  <metadata
     id="metadata5">
    <rdf:RDF>
      <cc:Work
         rdf:about="">
        <dc:format>image/svg+xml</dc:format>
        <dc:type
           rdf:resource="http://purl.org/dc/dcmitype/StillImage" />
        <dc:title />
      </cc:Work>
    </rdf:RDF>
  </metadata>
  <g
     inkscape:label="Layer 1"
     inkscape:groupmode="layer"
     id="layer1">
    <circle
       id="path18-6"
       cx="66.145836"
       cy="66.145836"
       style="fill:url(#linearGradient1001-9);fill-opacity:1;stroke-width:0.1524;stroke-miterlimit:4;stroke-dasharray:none"
       r="63.5" />
    <g
       id="g13144"
       transform="matrix(0.05846854,0,0,0.05846854,37.994598,51.57446)"
       style="fill:#ffffff">
      <g
         id="g13142"
         style="fill:#ffffff" />
    </g>
    <g
       id="g1818"
       transform="matrix(1.0954301,0,0,1.0954301,34.833335,32.743953)"
       style="fill:#ffffff;filter:url(#filter1915)">
      <polygon
         points="31,16 59.554,16 49.554,0 31,0 "
         id="polygon1812"
         style="fill:#ffffff" />
      <polygon
         points="0.446,16 29,16 29,0 10.446,0 "
         id="polygon1814"
         style="fill:#ffffff" />
      <path
         d="M 0,18 V 60 H 60 V 18 Z M 22.707,43.707 C 22.512,43.902 22.256,44 22,44 c -0.256,0 -0.512,-0.098 -0.707,-0.293 -0.391,-0.391 -0.391,-1.023 0,-1.414 l 2.999,-2.999 c 0.092,-0.093 0.203,-0.166 0.326,-0.217 0.244,-0.101 0.52,-0.101 0.764,0 0.123,0.051 0.233,0.124 0.326,0.217 l 2.999,2.999 c 0.391,0.391 0.391,1.023 0,1.414 C 28.512,43.902 28.256,44 28,44 27.744,44 27.488,43.902 27.293,43.707 L 26,42.414 V 49 c 0,0.553 -0.448,1 -1,1 -0.552,0 -1,-0.447 -1,-1 V 42.414 Z M 38,54 H 22 c -0.552,0 -1,-0.447 -1,-1 0,-0.553 0.448,-1 1,-1 h 16 c 0.552,0 1,0.447 1,1 0,0.553 -0.448,1 -1,1 z M 38.707,43.707 C 38.512,43.902 38.256,44 38,44 37.744,44 37.488,43.902 37.293,43.707 L 36,42.414 V 49 c 0,0.553 -0.448,1 -1,1 -0.552,0 -1,-0.447 -1,-1 v -6.586 l -1.293,1.293 C 32.512,43.902 32.256,44 32,44 c -0.256,0 -0.512,-0.098 -0.707,-0.293 -0.391,-0.391 -0.391,-1.023 0,-1.414 l 2.999,-2.999 c 0.092,-0.093 0.203,-0.166 0.326,-0.217 0.244,-0.101 0.52,-0.101 0.764,0 0.123,0.051 0.233,0.124 0.326,0.217 l 2.999,2.999 c 0.391,0.391 0.391,1.023 0,1.414 z M 36,29 H 24 c -1.654,0 -3,-1.346 -3,-3 0,-1.654 1.346,-3 3,-3 h 12 c 1.654,0 3,1.346 3,3 0,1.654 -1.346,3 -3,3 z"
         id="path1816"
         style="fill:#ffffff" />
    </g>
  </g>
</svg>
