<?xml version="1.0" encoding="UTF-8" standalone="no"?>
<svg
   xmlns:dc="http://purl.org/dc/elements/1.1/"
   xmlns:cc="http://creativecommons.org/ns#"
   xmlns:rdf="http://www.w3.org/1999/02/22-rdf-syntax-ns#"
   xmlns:svg="http://www.w3.org/2000/svg"
   xmlns="http://www.w3.org/2000/svg"
   xmlns:xlink="http://www.w3.org/1999/xlink"
   xmlns:sodipodi="http://sodipodi.sourceforge.net/DTD/sodipodi-0.dtd"
   xmlns:inkscape="http://www.inkscape.org/namespaces/inkscape"
   width="500"
   height="500"
   viewBox="0 0 132.29167 132.29167"
   version="1.1"
   id="svg8"
   inkscape:version="1.0.1 (3bc2e813f5, 2020-09-07)"
   sodipodi:docname="ResourceView.svg">
  <defs
     id="defs2">
    <linearGradient
       inkscape:collect="always"
       id="linearGradient997">
      <stop
         style="stop-color:#006464;stop-opacity:1"
         offset="0"
         id="stop993" />
      <stop
         style="stop-color:#00e0e0;stop-opacity:1"
         offset="1"
         id="stop995" />
    </linearGradient>
    <linearGradient
       inkscape:collect="always"
       xlink:href="#linearGradient997"
       id="linearGradient1001-9"
       x1="66.53019"
       y1="129.67029"
       x2="66.53019"
       y2="2.8013468"
       gradientUnits="userSpaceOnUse"
       gradientTransform="translate(-9.1271094e-6)" />
    <inkscape:path-effect
       effect="mirror_symmetry"
       start_point="29.97712,-9.4427312"
       end_point="29.97712,16.080707"
       center_point="29.97712,3.3189879"
       id="path-effect1921"
       is_visible="true"
       lpeversion="1"
       mode="free"
       discard_orig_path="false"
       fuse_paths="false"
       oposite_fuse="false"
       split_items="false" />
    <filter
       style="color-interpolation-filters:sRGB;"
       inkscape:label="Drop Shadow"
       id="filter2450">
      <feFlood
         flood-opacity="0.501961"
         flood-color="rgb(0,0,0)"
         result="flood"
         id="feFlood2440" />
      <feComposite
         in="flood"
         in2="SourceGraphic"
         operator="in"
         result="composite1"
         id="feComposite2442" />
      <feGaussianBlur
         in="composite1"
         stdDeviation="3"
         result="blur"
         id="feGaussianBlur2444" />
      <feOffset
         dx="0"
         dy="0"
         result="offset"
         id="feOffset2446" />
      <feComposite
         in="SourceGraphic"
         in2="offset"
         operator="over"
         result="composite2"
         id="feComposite2448" />
    </filter>
  </defs>
  <sodipodi:namedview
     id="base"
     pagecolor="#ffffff"
     bordercolor="#666666"
     borderopacity="1.0"
     inkscape:pageopacity="0.0"
     inkscape:pageshadow="2"
     inkscape:zoom="1.8570568"
     inkscape:cx="502.86542"
     inkscape:cy="243.64817"
     inkscape:document-units="px"
     inkscape:current-layer="g2414"
     inkscape:document-rotation="0"
     showgrid="true"
     units="px"
     inkscape:pagecheckerboard="true"
     inkscape:window-width="2560"
     inkscape:window-height="1361"
     inkscape:window-x="-9"
     inkscape:window-y="-9"
     inkscape:window-maximized="1"
     inkscape:snap-midpoints="false"
     inkscape:snap-grids="true"
     showguides="true">
    <inkscape:grid
       type="xygrid"
       id="grid2749" />
  </sodipodi:namedview>
  <metadata
     id="metadata5">
    <rdf:RDF>
      <cc:Work
         rdf:about="">
        <dc:format>image/svg+xml</dc:format>
        <dc:type
           rdf:resource="http://purl.org/dc/dcmitype/StillImage" />
        <dc:title></dc:title>
      </cc:Work>
    </rdf:RDF>
  </metadata>
  <g
     inkscape:label="Layer 1"
     inkscape:groupmode="layer"
     id="layer1">
    <circle
       id="path18-6"
       cx="66.145836"
       cy="66.145836"
       style="fill:url(#linearGradient1001-9);fill-opacity:1;stroke-width:0.1524;stroke-miterlimit:4;stroke-dasharray:none"
       r="63.5" />
    <g
       id="g13144"
       transform="matrix(0.05846854,0,0,0.05846854,37.994598,51.57446)"
       style="fill:#ffffff">
      <g
         id="g13142"
         style="fill:#ffffff" />
    </g>
    <g
       id="g2322"
       transform="matrix(1.0967345,0,0,1.0967345,34.600893,42.278035)">
      <g
         id="g2414"
         style="filter:url(#filter2450)">
        <path
           id="polygon1814-9"
           d="M 0,18 -17.083758,-0.38354256 0.75251283,-9.5234385 10,2 Z M 59.95424,18 77.037998,-0.38354256 59.201727,-9.5234385 49.95424,2 Z"
           sodipodi:nodetypes="ccccc"
           inkscape:path-effect="#path-effect1921"
           inkscape:original-d="M 0,18 -17.083758,-0.38354256 0.75251283,-9.5234385 10,2 Z"
           style="fill:#ffffff" />
        <path
           d="M 0,18 V 60 H 60 V 18 Z M 22.707,43.707 C 22.512,43.902 22.256,44 22,44 c -0.256,0 -0.512,-0.098 -0.707,-0.293 -0.391,-0.391 -0.391,-1.023 0,-1.414 l 2.999,-2.999 c 0.092,-0.093 0.203,-0.166 0.326,-0.217 0.244,-0.101 0.52,-0.101 0.764,0 0.123,0.051 0.233,0.124 0.326,0.217 l 2.999,2.999 c 0.391,0.391 0.391,1.023 0,1.414 C 28.512,43.902 28.256,44 28,44 27.744,44 27.488,43.902 27.293,43.707 L 26,42.414 V 49 c 0,0.553 -0.448,1 -1,1 -0.552,0 -1,-0.447 -1,-1 V 42.414 Z M 38,54 H 22 c -0.552,0 -1,-0.447 -1,-1 0,-0.553 0.448,-1 1,-1 h 16 c 0.552,0 1,0.447 1,1 0,0.553 -0.448,1 -1,1 z M 38.707,43.707 C 38.512,43.902 38.256,44 38,44 37.744,44 37.488,43.902 37.293,43.707 L 36,42.414 V 49 c 0,0.553 -0.448,1 -1,1 -0.552,0 -1,-0.447 -1,-1 v -6.586 l -1.293,1.293 C 32.512,43.902 32.256,44 32,44 c -0.256,0 -0.512,-0.098 -0.707,-0.293 -0.391,-0.391 -0.391,-1.023 0,-1.414 l 2.999,-2.999 c 0.092,-0.093 0.203,-0.166 0.326,-0.217 0.244,-0.101 0.52,-0.101 0.764,0 0.123,0.051 0.233,0.124 0.326,0.217 l 2.999,2.999 c 0.391,0.391 0.391,1.023 0,1.414 z M 36,29 H 24 c -1.654,0 -3,-1.346 -3,-3 0,-1.654 1.346,-3 3,-3 h 12 c 1.654,0 3,1.346 3,3 0,1.654 -1.346,3 -3,3 z"
           id="path1816-3"
           style="fill:#ffffff" />
        <rect
           style="fill:#ffffff;stroke-width:1.07542"
           id="rect1923"
           width="43.646145"
           height="1.7065436"
           x="7.8604426"
           y="1.9133973"
           ry="0"
           rx="0" />
        <g
           id="Layer_5_65_"
           transform="matrix(0.10350343,0,0,0.10350343,8.6934267,-25.405354)"
           style="fill:#ffffff">
          <g
             id="g2091"
             style="fill:#ffffff">
            <path
               d="m 351.881,124.625 c -29.992,0 -119.967,0 -119.967,0 -2.918,0 -5.308,-2.387 -5.308,-5.305 V 4.823 c 0,0 0.086,-4.821 -4.664,-4.821 -42.905,0 -171.617,0 -171.617,0 -4.826,0 -8.776,3.95 -8.776,8.776 v 380.929 c 0,4.826 3.95,8.776 8.776,8.776 h 297.83 c 4.828,0 8.777,-3.95 8.777,-8.776 V 129.884 c 0.002,0 0.002,-5.259 -5.051,-5.259 z"
               id="path2087"
               style="fill:#ffffff" />
            <path
               d="m 250.348,107.861 h 102.906 c 3.715,0 4.555,-2.119 1.865,-4.708 L 248.482,1.458 c -2.688,-2.59 -4.889,-1.637 -4.889,2.117 v 97.459 c 0.002,3.758 3.04,6.827 6.755,6.827 z"
               id="path2089"
               style="fill:#ffffff" />
          </g>
        </g>
        <path
           id="rect2165"
           style="fill:#006565;stroke-width:0.846479;fill-opacity:1"
           d="M 16.478807,-3.298445 H 42.85421 v 1.6081221 H 16.478807 Z" />
        <path
           id="rect2165-2"
           style="fill:#006565;stroke-width:0.846479;fill-opacity:1"
           d="M 16.281437,6.9950743 H 42.656839 V 8.6031964 H 16.281437 Z" />
        <g
           aria-label="10101100"
           id="text2184"
           style="font-style:normal;font-variant:normal;font-weight:normal;font-stretch:normal;font-size:5.33333px;line-height:1.25;font-family:Consolas;-inkscape-font-specification:Consolas;letter-spacing:0px;word-spacing:0px;fill:#006565;fill-opacity:1">
          <path
             d="m 20.860538,4.440907 h -2.13802 V 4.0190323 h 0.874999 V 1.5346587 L 18.782414,1.9773668 18.615747,1.5919504 19.69908,1.0216382 h 0.401041 v 2.9973941 h 0.760417 z"
             id="path2239"
             style="fill:#006565;fill-opacity:1" />
          <path
             d="m 23.899598,2.7403872 q 0,0.3906247 -0.07813,0.7135412 -0.07813,0.3203123 -0.236979,0.552083 -0.158854,0.2291666 -0.395833,0.3567706 -0.234375,0.125 -0.552083,0.125 -0.273437,0 -0.497395,-0.1015625 Q 21.915224,4.2820529 21.75637,4.0685114 21.597516,3.8549699 21.511579,3.5242409 q -0.08594,-0.330729 -0.08594,-0.7838537 0,-0.3906248 0.07813,-0.7135413 0.08073,-0.3229164 0.236979,-0.552083 0.158854,-0.2317707 0.395833,-0.3567706 0.236979,-0.12760408 0.552083,-0.12760408 0.273438,0 0.497396,0.10416658 0.223958,0.1015625 0.382812,0.3177082 0.158854,0.2135415 0.244792,0.5442705 0.08594,0.330729 0.08594,0.7838537 z m -0.458333,0.015625 q 0,-0.088542 -0.0078,-0.1744791 -0.0052,-0.088542 -0.01302,-0.1718749 l -1.440104,1.0703119 q 0.03906,0.1354166 0.09896,0.2499998 0.0599,0.1145833 0.143229,0.1979166 0.08594,0.080729 0.192708,0.1276041 0.109375,0.044271 0.247396,0.044271 0.177083,0 0.320312,-0.085937 0.145833,-0.085937 0.247396,-0.2552082 0.101562,-0.1692707 0.15625,-0.4192705 0.05469,-0.2526041 0.05469,-0.583333 z m -1.557291,-0.03125 q 0,0.080729 0,0.1614582 0.0026,0.080729 0.01042,0.1562499 l 1.440103,-1.0651035 q -0.03906,-0.1328124 -0.09896,-0.2421874 -0.0599,-0.1093749 -0.143229,-0.1874998 -0.08333,-0.080729 -0.190104,-0.125 -0.106771,-0.044271 -0.239583,-0.044271 -0.177083,0 -0.322917,0.085937 -0.143229,0.085937 -0.244791,0.2578123 -0.101563,0.1692708 -0.15625,0.4218748 -0.05469,0.2499998 -0.05469,0.5807288 z"
             id="path2241"
             style="fill:#006565;fill-opacity:1" />
          <path
             d="M 26.725117,4.440907 H 24.587098 V 4.0190323 h 0.874999 V 1.5346587 L 24.646993,1.9773668 24.480327,1.5919504 25.56366,1.0216382 h 0.401041 v 2.9973941 h 0.760416 z"
             id="path2243"
             style="fill:#006565;fill-opacity:1" />
          <path
             d="m 29.764178,2.7403872 q 0,0.3906247 -0.07813,0.7135412 -0.07813,0.3203123 -0.236979,0.552083 -0.158854,0.2291666 -0.395833,0.3567706 -0.234375,0.125 -0.552083,0.125 -0.273438,0 -0.497396,-0.1015625 Q 27.779804,4.2820529 27.62095,4.0685114 27.462096,3.8549699 27.376158,3.5242409 q -0.08594,-0.330729 -0.08594,-0.7838537 0,-0.3906248 0.07813,-0.7135413 0.08073,-0.3229164 0.236979,-0.552083 0.158854,-0.2317707 0.395833,-0.3567706 0.236979,-0.12760408 0.552083,-0.12760408 0.273437,0 0.497395,0.10416658 0.223959,0.1015625 0.382813,0.3177082 0.158854,0.2135415 0.244791,0.5442705 0.08594,0.330729 0.08594,0.7838537 z m -0.458333,0.015625 q 0,-0.088542 -0.0078,-0.1744791 -0.0052,-0.088542 -0.01302,-0.1718749 l -1.440103,1.0703119 q 0.03906,0.1354166 0.09896,0.2499998 0.0599,0.1145833 0.143229,0.1979166 0.08594,0.080729 0.192709,0.1276041 0.109374,0.044271 0.247395,0.044271 0.177083,0 0.320312,-0.085937 0.145834,-0.085937 0.247396,-0.2552082 0.101563,-0.1692707 0.15625,-0.4192705 0.05469,-0.2526041 0.05469,-0.583333 z m -1.557291,-0.03125 q 0,0.080729 0,0.1614582 0.0026,0.080729 0.01042,0.1562499 l 1.440104,-1.0651035 q -0.03906,-0.1328124 -0.09896,-0.2421874 -0.0599,-0.1093749 -0.14323,-0.1874998 -0.08333,-0.080729 -0.190104,-0.125 -0.10677,-0.044271 -0.239583,-0.044271 -0.177083,0 -0.322916,0.085937 -0.143229,0.085937 -0.244792,0.2578123 -0.101562,0.1692708 -0.15625,0.4218748 -0.05469,0.2499998 -0.05469,0.5807288 z"
             id="path2245"
             style="fill:#006565;fill-opacity:1" />
          <path
             d="m 32.589697,4.440907 h -2.13802 V 4.0190323 h 0.875 V 1.5346587 L 30.511573,1.9773668 30.344907,1.5919504 31.428239,1.0216382 h 0.401042 v 2.9973941 h 0.760416 z"
             id="path2247"
             style="fill:#006565;fill-opacity:1" />
          <path
             d="m 35.521987,4.440907 h -2.13802 V 4.0190323 h 0.875 V 1.5346587 L 33.443863,1.9773668 33.277197,1.5919504 34.360529,1.0216382 h 0.401042 v 2.9973941 h 0.760416 z"
             id="path2249"
             style="fill:#006565;fill-opacity:1" />
          <path
             d="m 38.561047,2.7403872 q 0,0.3906247 -0.07813,0.7135412 -0.07813,0.3203123 -0.236979,0.552083 -0.158854,0.2291666 -0.395833,0.3567706 -0.234375,0.125 -0.552083,0.125 -0.273438,0 -0.497396,-0.1015625 Q 36.576673,4.2820529 36.417819,4.0685114 36.258965,3.8549699 36.173027,3.5242409 36.08709,3.1935119 36.08709,2.7403872 q 0,-0.3906248 0.07813,-0.7135413 0.08073,-0.3229164 0.236979,-0.552083 0.158854,-0.2317707 0.395833,-0.3567706 0.236979,-0.12760408 0.552083,-0.12760408 0.273437,0 0.497396,0.10416658 0.223958,0.1015625 0.382812,0.3177082 0.158854,0.2135415 0.244791,0.5442705 0.08594,0.330729 0.08594,0.7838537 z m -0.458333,0.015625 q 0,-0.088542 -0.0078,-0.1744791 -0.0052,-0.088542 -0.01302,-0.1718749 L 36.64179,3.4799701 q 0.03906,0.1354166 0.09896,0.2499998 0.0599,0.1145833 0.14323,0.1979166 0.08594,0.080729 0.192708,0.1276041 0.109375,0.044271 0.247395,0.044271 0.177084,0 0.320313,-0.085937 0.145833,-0.085937 0.247395,-0.2552082 0.101563,-0.1692707 0.15625,-0.4192705 0.05469,-0.2526041 0.05469,-0.583333 z m -1.557291,-0.03125 q 0,0.080729 0,0.1614582 0.0026,0.080729 0.01042,0.1562499 l 1.440103,-1.0651035 q -0.03906,-0.1328124 -0.09896,-0.2421874 -0.0599,-0.1093749 -0.143229,-0.1874998 -0.08333,-0.080729 -0.190104,-0.125 -0.106771,-0.044271 -0.239584,-0.044271 -0.177083,0 -0.322916,0.085937 -0.143229,0.085937 -0.244792,0.2578123 -0.101562,0.1692708 -0.156249,0.4218748 -0.05469,0.2499998 -0.05469,0.5807288 z"
             id="path2251"
             style="fill:#006565;fill-opacity:1" />
          <path
             d="m 41.493338,2.7403872 q 0,0.3906247 -0.07813,0.7135412 -0.07813,0.3203123 -0.236979,0.552083 -0.158854,0.2291666 -0.395833,0.3567706 -0.234375,0.125 -0.552083,0.125 -0.273437,0 -0.497396,-0.1015625 Q 39.508964,4.2820529 39.35011,4.0685114 39.191256,3.8549699 39.105319,3.5242409 q -0.08594,-0.330729 -0.08594,-0.7838537 0,-0.3906248 0.07813,-0.7135413 0.08073,-0.3229164 0.236979,-0.552083 0.158854,-0.2317707 0.395833,-0.3567706 0.236979,-0.12760408 0.552083,-0.12760408 0.273437,0 0.497396,0.10416658 0.223958,0.1015625 0.382812,0.3177082 0.158854,0.2135415 0.244791,0.5442705 0.08594,0.330729 0.08594,0.7838537 z m -0.458333,0.015625 q 0,-0.088542 -0.0078,-0.1744791 -0.0052,-0.088542 -0.01302,-0.1718749 l -1.440104,1.0703119 q 0.03906,0.1354166 0.09896,0.2499998 0.0599,0.1145833 0.143229,0.1979166 0.08594,0.080729 0.192708,0.1276041 0.109375,0.044271 0.247395,0.044271 0.177084,0 0.320313,-0.085937 0.145833,-0.085937 0.247395,-0.2552082 0.101563,-0.1692707 0.15625,-0.4192705 0.05469,-0.2526041 0.05469,-0.583333 z m -1.557291,-0.03125 q 0,0.080729 0,0.1614582 0.0026,0.080729 0.01042,0.1562499 l 1.440103,-1.0651035 q -0.03906,-0.1328124 -0.09896,-0.2421874 -0.0599,-0.1093749 -0.143229,-0.1874998 -0.08333,-0.080729 -0.190104,-0.125 -0.106771,-0.044271 -0.239584,-0.044271 -0.177083,0 -0.322916,0.085937 -0.143229,0.085937 -0.244791,0.2578123 -0.101563,0.1692708 -0.15625,0.4218748 -0.05469,0.2499998 -0.05469,0.5807288 z"
             id="path2253"
             style="fill:#006565;fill-opacity:1" />
        </g>
      </g>
    </g>
  </g>
</svg>
