<?xml version="1.0" encoding="UTF-8" standalone="no"?>
<svg
   xmlns:dc="http://purl.org/dc/elements/1.1/"
   xmlns:cc="http://creativecommons.org/ns#"
   xmlns:rdf="http://www.w3.org/1999/02/22-rdf-syntax-ns#"
   xmlns:svg="http://www.w3.org/2000/svg"
   xmlns="http://www.w3.org/2000/svg"
   xmlns:xlink="http://www.w3.org/1999/xlink"
   xmlns:sodipodi="http://sodipodi.sourceforge.net/DTD/sodipodi-0.dtd"
   xmlns:inkscape="http://www.inkscape.org/namespaces/inkscape"
   width="500"
   height="500"
   viewBox="0 0 132.29167 132.29167"
   version="1.1"
   id="svg8"
   inkscape:version="1.0.1 (3bc2e813f5, 2020-09-07)"
   sodipodi:docname="Sampler.svg">
  <defs
     id="defs2">
    <linearGradient
       inkscape:collect="always"
       xlink:href="#linearGradient997"
       id="linearGradient1001-9"
       x1="66.53019"
       y1="129.67029"
       x2="66.53019"
       y2="2.8013468"
       gradientUnits="userSpaceOnUse"
       gradientTransform="translate(-4.5817578e-6)" />
    <linearGradient
       inkscape:collect="always"
       id="linearGradient997">
      <stop
         style="stop-color:#006464;stop-opacity:1"
         offset="0"
         id="stop993" />
      <stop
         style="stop-color:#00e0e0;stop-opacity:1"
         offset="1"
         id="stop995" />
    </linearGradient>
    <filter
       style="color-interpolation-filters:sRGB;"
       inkscape:label="Drop Shadow"
       id="filter2974">
      <feFlood
         flood-opacity="0.501961"
         flood-color="rgb(0,0,0)"
         result="flood"
         id="feFlood2964" />
      <feComposite
         in="flood"
         in2="SourceGraphic"
         operator="in"
         result="composite1"
         id="feComposite2966" />
      <feGaussianBlur
         in="composite1"
         stdDeviation="30"
         result="blur"
         id="feGaussianBlur2968" />
      <feOffset
         dx="0"
         dy="0"
         result="offset"
         id="feOffset2970" />
      <feComposite
         in="SourceGraphic"
         in2="offset"
         operator="over"
         result="composite2"
         id="feComposite2972" />
    </filter>
  </defs>
  <sodipodi:namedview
     id="base"
     pagecolor="#ffffff"
     bordercolor="#666666"
     borderopacity="1.0"
     inkscape:pageopacity="0.0"
     inkscape:pageshadow="2"
     inkscape:zoom="0.88700571"
     inkscape:cx="174.86026"
     inkscape:cy="226.16036"
     inkscape:document-units="px"
     inkscape:current-layer="layer1"
     inkscape:document-rotation="0"
     showgrid="true"
     units="px"
     inkscape:pagecheckerboard="true"
     inkscape:window-width="2560"
     inkscape:window-height="1361"
     inkscape:window-x="-9"
     inkscape:window-y="-9"
     inkscape:window-maximized="1"
     inkscape:snap-midpoints="false"
     inkscape:snap-grids="true"
     showguides="true">
    <inkscape:grid
       type="xygrid"
       id="grid2749" />
  </sodipodi:namedview>
  <metadata
     id="metadata5">
    <rdf:RDF>
      <cc:Work
         rdf:about="">
        <dc:format>image/svg+xml</dc:format>
        <dc:type
           rdf:resource="http://purl.org/dc/dcmitype/StillImage" />
        <dc:title></dc:title>
      </cc:Work>
    </rdf:RDF>
  </metadata>
  <g
     inkscape:label="Layer 1"
     inkscape:groupmode="layer"
     id="layer1">
    <circle
       id="path18-6"
       cx="66.145836"
       cy="66.145836"
       style="fill:url(#linearGradient1001-9);fill-opacity:1;stroke-width:0.1524;stroke-miterlimit:4;stroke-dasharray:none"
       r="63.5" />
    <g
       id="g13144"
       transform="matrix(0.05846854,0,0,0.05846854,37.994598,51.57446)"
       style="fill:#ffffff">
      <g
         id="g13142"
         style="fill:#ffffff" />
    </g>
    <g
       id="g2853"
       transform="matrix(0.14101338,0,0,0.14101338,39.522224,38.774856)"
       style="fill:#ffffff;filter:url(#filter2974)">
      <g
         id="g2851"
         style="fill:#ffffff">
        <path
           d="m 261.097,241.079 c 3.294,2.107 6.953,3.435 10.74,3.783 6.416,0.589 13.048,-1.383 18.237,-5.995 9.975,-8.864 10.889,-24.129 2.024,-34.096 L 282.617,194.102 383.712,93.004 c 21.228,-21.222 21.228,-55.627 0,-76.849 -21.219,-21.219 -55.619,-21.219 -76.854,0 l -96.562,96.563 -6.151,-6.943 c -8.867,-9.971 -24.135,-10.874 -34.105,-2.016 -9.97,8.862 -10.87,24.123 -2.008,34.099 z"
           id="path2847"
           style="fill:#ffffff" />
        <path
           d="M 115.017,361.702 240.427,236.29 186.281,176.672 72.608,292.65 c -1.531,1.567 -3.574,2.356 -5.604,2.356 -1.985,0 -3.965,-0.753 -5.498,-2.248 -3.1,-3.033 -3.14,-8.011 -0.106,-11.108 L 175.395,165.352 c 0.106,-0.118 0.256,-0.15 0.375,-0.256 l -8.494,-9.353 -129.114,129.105 c -17.783,17.776 -20.6,44.803 -8.582,65.577 L 3.053,379.704 c -4.374,4.812 -4.001,12.259 0.817,16.635 2.254,2.04 5.08,3.054 7.905,3.054 3.204,0 6.396,-1.303 8.724,-3.871 l 25.072,-27.684 c 9.304,6.476 20.144,9.767 31.01,9.767 13.92,0.007 27.83,-5.299 38.436,-15.903 z"
           id="path2849"
           style="fill:#ffffff" />
      </g>
    </g>
  </g>
</svg>
