<?xml version="1.0" encoding="UTF-8" standalone="no"?>
<svg
   xmlns:dc="http://purl.org/dc/elements/1.1/"
   xmlns:cc="http://creativecommons.org/ns#"
   xmlns:rdf="http://www.w3.org/1999/02/22-rdf-syntax-ns#"
   xmlns:svg="http://www.w3.org/2000/svg"
   xmlns="http://www.w3.org/2000/svg"
   xmlns:xlink="http://www.w3.org/1999/xlink"
   xmlns:sodipodi="http://sodipodi.sourceforge.net/DTD/sodipodi-0.dtd"
   xmlns:inkscape="http://www.inkscape.org/namespaces/inkscape"
   width="500"
   height="500"
   viewBox="0 0 132.29167 132.29167"
   version="1.1"
   id="svg8"
   inkscape:version="1.0.1 (3bc2e813f5, 2020-09-07)"
   sodipodi:docname="Shader.svg">
  <defs
     id="defs2">
    <linearGradient
       inkscape:collect="always"
       xlink:href="#linearGradient997"
       id="linearGradient1001"
       x1="66.53019"
       y1="129.67029"
       x2="66.53019"
       y2="2.8013468"
       gradientUnits="userSpaceOnUse"
       gradientTransform="translate(1.0457031e-6)" />
    <linearGradient
       inkscape:collect="always"
       id="linearGradient997">
      <stop
         style="stop-color:#9e0000;stop-opacity:1"
         offset="0"
         id="stop993" />
      <stop
         style="stop-color:#ff4d4d;stop-opacity:1"
         offset="1"
         id="stop995" />
    </linearGradient>
    <filter
       style="color-interpolation-filters:sRGB;"
       inkscape:label="Drop Shadow"
       id="filter12878">
      <feFlood
         flood-opacity="0.501961"
         flood-color="rgb(0,0,0)"
         result="flood"
         id="feFlood12868" />
      <feComposite
         in="flood"
         in2="SourceGraphic"
         operator="in"
         result="composite1"
         id="feComposite12870" />
      <feGaussianBlur
         in="composite1"
         stdDeviation="50"
         result="blur"
         id="feGaussianBlur12872" />
      <feOffset
         dx="0"
         dy="0"
         result="offset"
         id="feOffset12874" />
      <feComposite
         in="SourceGraphic"
         in2="offset"
         operator="over"
         result="composite2"
         id="feComposite12876" />
    </filter>
  </defs>
  <sodipodi:namedview
     id="base"
     pagecolor="#ffffff"
     bordercolor="#666666"
     borderopacity="1.0"
     inkscape:pageopacity="0.0"
     inkscape:pageshadow="2"
     inkscape:zoom="0.95781839"
     inkscape:cx="475.13266"
     inkscape:cy="105.75781"
     inkscape:document-units="px"
     inkscape:current-layer="layer1"
     inkscape:document-rotation="0"
     showgrid="true"
     units="px"
     inkscape:pagecheckerboard="true"
     inkscape:window-width="2560"
     inkscape:window-height="1361"
     inkscape:window-x="-9"
     inkscape:window-y="-9"
     inkscape:window-maximized="1"
     inkscape:snap-midpoints="false"
     inkscape:snap-grids="true"
     showguides="true">
    <inkscape:grid
       type="xygrid"
       id="grid2749" />
  </sodipodi:namedview>
  <metadata
     id="metadata5">
    <rdf:RDF>
      <cc:Work
         rdf:about="">
        <dc:format>image/svg+xml</dc:format>
        <dc:type
           rdf:resource="http://purl.org/dc/dcmitype/StillImage" />
        <dc:title></dc:title>
      </cc:Work>
    </rdf:RDF>
  </metadata>
  <g
     inkscape:label="Layer 1"
     inkscape:groupmode="layer"
     id="layer1">
    <circle
       id="path18"
       cx="66.145836"
       cy="66.145836"
       style="fill:url(#linearGradient1001);fill-opacity:1;stroke-width:0.1524;stroke-miterlimit:4;stroke-dasharray:none"
       r="63.5" />
    <g
       id="g12781"
       transform="matrix(0.0768666,0,0,0.0768666,34.003885,26.366313)"
       style="fill:#ffffff;filter:url(#filter12878)">
      <g
         id="g12779"
         style="fill:#ffffff">
        <path
           d="m 120.269,930.855 c 14.171,14.17 38.842,12.477 55.103,-3.785 L 347.431,755.011 472.576,880.156 c 16.262,16.26 42.626,16.26 58.889,0 L 580.23,831.39 c 16.261,-16.26 16.261,-42.625 0,-58.887 L 167.97,360.242 c -16.261,-16.261 -42.626,-16.261 -58.888,0 l -48.765,48.765 c -16.261,16.261 -16.261,42.626 0,58.888 L 185.462,593.04 13.402,765.102 c -16.261,16.26 -17.956,40.932 -3.785,55.102 z M 104.553,774.85 c 16.864,-16.865 44.207,-16.865 61.071,0 16.865,16.863 16.865,44.207 0,61.07 -16.864,16.863 -44.207,16.863 -61.071,0 -16.865,-16.863 -16.865,-44.207 0,-61.07 z"
           id="path12775"
           style="fill:#ffffff" />
        <path
           d="m 182.89,308.062 c 0.087,0.604 0.189,1.206 0.305,1.806 0.141,0.727 0.31,1.45 0.494,2.17 1.633,6.404 4.948,12.467 9.959,17.479 l 104.327,104.327 312.982,312.982 c 2.788,2.787 5.899,5.053 9.215,6.795 1.104,0.58 2.232,1.104 3.378,1.568 1.719,0.697 3.478,1.262 5.262,1.699 1.261,0.307 2.535,0.545 3.816,0.723 1.055,0.146 2.114,0.246 3.177,0.305 0.11,0.006 0.22,0.014 0.331,0.02 0.58,0.027 1.159,0.043 1.739,0.043 0.019,0 0.037,-0.002 0.055,-0.002 0.791,-0.002 1.581,-0.035 2.371,-0.086 0.21,-0.014 0.42,-0.029 0.629,-0.045 0.805,-0.064 1.609,-0.145 2.409,-0.26 3.019,-0.436 5.996,-1.234 8.859,-2.396 1.146,-0.465 2.273,-0.986 3.378,-1.568 0.553,-0.289 1.101,-0.594 1.641,-0.914 2.028,-1.197 3.968,-2.6 5.792,-4.207 0.607,-0.533 1.203,-1.092 1.783,-1.674 L 787.105,624.515 909.42,502.199 929.318,482.301 c 0.602,-0.602 1.177,-1.217 1.729,-1.846 3.861,-4.404 6.528,-9.49 8.016,-14.834 3.562,-12.799 0.32,-27.095 -9.744,-37.16 L 924.53,423.673 548.13,47.267 512.013,11.15 c -0.929,-0.929 -1.896,-1.8 -2.891,-2.613 -0.996,-0.813 -2.025,-1.568 -3.081,-2.265 -1.583,-1.045 -3.228,-1.96 -4.917,-2.744 -1.126,-0.523 -2.273,-0.987 -3.437,-1.394 -1.163,-0.407 -2.341,-0.755 -3.531,-1.045 -1.783,-0.436 -3.594,-0.74 -5.414,-0.915 C 488.171,0.119 487.598,0.08 487.025,0.051 486.837,0.041 486.649,0.039 486.462,0.033 486.074,0.019 485.688,0.007 485.3,0.005 485.231,0.005 485.162,0 485.093,0 c -0.108,0 -0.216,0.009 -0.324,0.01 -0.545,0.005 -1.09,0.021 -1.634,0.049 -0.166,0.009 -0.332,0.015 -0.498,0.025 -0.671,0.043 -1.342,0.102 -2.011,0.18 -0.12,0.014 -0.24,0.034 -0.361,0.049 -0.565,0.072 -1.129,0.157 -1.691,0.254 -0.182,0.031 -0.362,0.063 -0.545,0.097 -0.669,0.126 -1.337,0.263 -2,0.425 -0.435,0.106 -0.866,0.229 -1.299,0.351 -6.062,1.709 -11.786,4.94 -16.557,9.711 l -4.731,4.731 -259.794,259.795 c -3.576,3.576 -6.283,7.69 -8.138,12.077 -0.164,0.388 -0.32,0.778 -0.471,1.17 -0.521,1.356 -0.963,2.734 -1.323,4.13 -0.364,1.41 -0.65,2.836 -0.85,4.272 -0.159,1.144 -0.27,2.293 -0.325,3.444 -0.029,0.608 -0.044,1.217 -0.044,1.826 0,0.609 0.014,1.218 0.044,1.826 0.058,1.217 0.174,2.432 0.349,3.64 z M 479.388,32.363 C 481.342,30.41 483.569,30 485.094,30 c 1.525,0 3.753,0.41 5.706,2.363 l 417.309,417.31 c 1.954,1.952 2.364,4.181 2.364,5.706 0,1.524 -0.41,3.752 -2.364,5.705 l -35.76,35.76 c -22.289,-2.576 -45.004,-2.17 -66.333,4.598 -17.153,5.443 -30.652,15.387 -44.135,27.033 -14.211,12.273 -29.746,25.285 -48.874,28.549 -16.185,2.76 -34.984,0.664 -46.476,-12.539 -12.03,-13.824 -15.919,-32.877 -11.342,-50.598 4.674,-18.094 15.435,-33.299 26.217,-48.233 11.19,-15.497 22.867,-30.812 32.259,-47.503 9.07,-16.121 29.632,-47.116 18.218,-65.91 -11.97,-19.703 -41.84,-11.31 -57.961,-2.262 -33.237,18.693 -57.012,48.939 -79.784,78.753 -6.471,8.472 -12.824,17.068 -19.581,25.316 -6.124,7.476 -13.219,14.29 -22.527,17.516 -19.011,6.59 -37.264,-4.955 -39.798,-24.721 -2.48,-19.355 12.443,-34.246 25.229,-46.51 14.409,-13.819 29.678,-26.718 43.984,-40.645 13.527,-13.168 26.93,-27.273 36.038,-43.971 3.133,-5.744 6.147,-12.423 7.196,-19.151 -27.065,0.615 -54.272,1.188 -79.893,-9.117 -16.372,-6.585 -31.188,-17.422 -40.014,-33.036 -7.671,-13.571 -10.892,-28.956 -11.21,-44.451 -0.637,-30.967 7.706,-61.689 1.901,-92.569 -3.923,-20.872 -11.735,-40.511 -23.14,-57.968 z"
           id="path12777"
           style="fill:#ffffff" />
      </g>
    </g>
  </g>
</svg>
